<?xml version="1.0" encoding="iso-8859-1"?>
<!-- Generator: Adobe Illustrator 18.0.0, SVG Export Plug-In . SVG Version: 6.00 Build 0)  -->
<!DOCTYPE svg PUBLIC "-//W3C//DTD SVG 1.1//EN" "http://www.w3.org/Graphics/SVG/1.1/DTD/svg11.dtd">
<svg version="1.1" id="Capa_1" xmlns="http://www.w3.org/2000/svg" xmlns:xlink="http://www.w3.org/1999/xlink" x="0px" y="0px"
	 viewBox="0 0 374.812 374.812" style="enable-background:new 0 0 374.812 374.812;" xml:space="preserve">
<g>
	<path d="M338.845,0H35.967c-2.761,0-5,2.239-5,5v85.332c0,2.761,2.239,5,5,5h3.195v274.48c0,2.761,2.239,5,5,5h286.49
		c2.761,0,5-2.239,5-5V95.332h3.192c2.761,0,5-2.239,5-5V5C343.845,2.239,341.606,0,338.845,0z M40.967,10h292.877v75.332H40.967V10
		z M49.163,364.812v-245.77l10.866,4.855c1.298,0.58,2.781,0.58,4.08,0l15.864-7.088l15.865,7.088c1.298,0.58,2.782,0.58,4.08,0
		l15.861-7.088l15.861,7.088c1.298,0.58,2.781,0.58,4.08,0l15.863-7.088l15.866,7.088c1.298,0.58,2.781,0.58,4.08,0l15.863-7.088
		l15.865,7.088c1.298,0.58,2.781,0.58,4.079,0l15.865-7.089l15.868,7.089c1.298,0.58,2.782,0.58,4.08,0l15.863-7.088l15.869,7.089
		c1.298,0.579,2.782,0.579,4.079,0l15.871-7.089l15.873,7.089c0.649,0.29,1.344,0.435,2.039,0.435s1.39-0.145,2.039-0.435
		l10.873-4.856v245.771H49.163z M325.652,108.089l-12.912,5.767l-15.873-7.089c-1.298-0.579-2.781-0.579-4.078,0l-15.871,7.089
		l-15.869-7.089c-1.298-0.579-2.782-0.58-4.08,0l-15.863,7.088l-15.868-7.088c-1.298-0.58-2.781-0.58-4.079,0l-15.865,7.088
		l-15.865-7.088c-1.298-0.58-2.781-0.58-4.08,0l-15.863,7.088l-15.866-7.088c-1.298-0.58-2.781-0.58-4.08,0l-15.863,7.088
		l-15.861-7.088c-1.298-0.58-2.782-0.58-4.08,0l-15.861,7.088l-15.865-7.088c-1.298-0.58-2.781-0.58-4.08,0l-15.864,7.088
		l-12.905-5.766V95.332h276.49V108.089z"/>
	<path d="M163.476,201.88c2.468,1.234,5.473,0.233,6.708-2.236l13.056-26.112v104.819h-15.86c-2.761,0-5,2.239-5,5s2.239,5,5,5
		h41.72c2.761,0,5-2.239,5-5s-2.239-5-5-5h-15.86v-126c0-2.319-1.594-4.333-3.851-4.866c-2.259-0.534-4.584,0.557-5.621,2.63
		l-22.528,45.057C160.005,197.642,161.006,200.646,163.476,201.88z"/>
	<path d="M261.908,321.332h-149c-2.761,0-5,2.239-5,5s2.239,5,5,5h149c2.761,0,5-2.239,5-5S264.669,321.332,261.908,321.332z"/>
	<path d="M147.516,26.332c-11.58,0-21,9.42-21,21s9.42,21,21,21s21-9.42,21-21S159.095,26.332,147.516,26.332z M147.516,58.332
		c-6.065,0-11-4.935-11-11s4.935-11,11-11s11,4.935,11,11S153.581,58.332,147.516,58.332z"/>
	<path d="M227.296,26.332c-11.58,0-21,9.42-21,21s9.42,21,21,21s21-9.42,21-21S238.876,26.332,227.296,26.332z M227.296,58.332
		c-6.065,0-11-4.935-11-11s4.935-11,11-11s11,4.935,11,11S233.362,58.332,227.296,58.332z"/>
	<path d="M105.942,349.632h-47c-2.761,0-5,2.239-5,5s2.239,5,5,5h47c2.761,0,5-2.239,5-5S108.704,349.632,105.942,349.632z"/>
	<path d="M324.942,15.332h-47c-2.761,0-5,2.239-5,5s2.239,5,5,5h47c2.761,0,5-2.239,5-5S327.704,15.332,324.942,15.332z"/>
	<path d="M324.942,31.332h-18c-2.761,0-5,2.239-5,5s2.239,5,5,5h18c2.761,0,5-2.239,5-5S327.704,31.332,324.942,31.332z"/>
	<path d="M67.942,71.332h-18c-2.761,0-5,2.239-5,5s2.239,5,5,5h18c2.761,0,5-2.239,5-5S70.704,71.332,67.942,71.332z"/>
	<path d="M58.942,345.332h26c2.761,0,5-2.239,5-5s-2.239-5-5-5h-26c-2.761,0-5,2.239-5,5S56.181,345.332,58.942,345.332z"/>
</g>
<g>
</g>
<g>
</g>
<g>
</g>
<g>
</g>
<g>
</g>
<g>
</g>
<g>
</g>
<g>
</g>
<g>
</g>
<g>
</g>
<g>
</g>
<g>
</g>
<g>
</g>
<g>
</g>
<g>
</g>
</svg>
