<?xml version="1.0" encoding="iso-8859-1"?>
<!-- Generator: Adobe Illustrator 16.0.0, SVG Export Plug-In . SVG Version: 6.00 Build 0)  -->
<!DOCTYPE svg PUBLIC "-//W3C//DTD SVG 1.1//EN" "http://www.w3.org/Graphics/SVG/1.1/DTD/svg11.dtd">
<svg version="1.1" id="Capa_1" xmlns="http://www.w3.org/2000/svg" xmlns:xlink="http://www.w3.org/1999/xlink" x="0px" y="0px"
	 width="185.104px" height="185.104px" viewBox="0 0 185.104 185.104" style="enable-background:new 0 0 185.104 185.104;"
	 xml:space="preserve">
<g>
	<g>
		<path d="M13.248,168.353l23.087-6.473l5.943,23.225l32.641-56.538c-11.14-2.96-21.151-8.622-29.298-16.289L13.248,168.353z"/>
		<path d="M139.476,112.277c-8.147,7.667-18.158,13.329-29.301,16.289l32.649,56.538l7.015-30.386l22.019,13.628L139.476,112.277z"
			/>
		<circle cx="92.541" cy="62.353" r="24.941"/>
		<path d="M112.927,122.587l21.592-12.471l-12.251-15.917c0.73-0.694,1.474-1.37,2.155-2.107l15.893,12.239l12.465-21.604
			l-18.492-7.624c0.292-0.962,0.523-1.945,0.755-2.938l19.856,2.652V49.882l-19.856,2.649c-0.231-0.993-0.463-1.97-0.755-2.938
			l18.498-7.624L140.31,20.374l-15.887,12.227c-0.682-0.734-1.4-1.446-2.131-2.131l12.227-15.887L112.927,2.119l-7.63,18.487
			c-0.956-0.292-1.967-0.441-2.94-0.667L105.017,0H80.076l2.649,19.851c-0.989,0.231-1.958,0.499-2.923,0.791L72.163,2.119
			L50.565,14.589l12.257,15.917c-0.734,0.688-1.477,1.367-2.162,2.095L44.777,20.374l-12.47,21.602l18.489,7.617
			c-0.295,0.962-0.529,1.945-0.755,2.932l-19.848-2.643v24.941l19.854-2.652c0.231,0.987,0.459,1.97,0.755,2.938l-18.496,7.624
			l12.47,21.598l15.89-12.232c0.685,0.736,1.401,1.449,2.137,2.137l-12.227,15.881l21.592,12.471l7.627-18.487
			c0.953,0.292,1.964,0.438,2.95,0.664l-2.67,19.942h24.941l-2.648-19.852c0.986-0.23,1.961-0.499,2.911-0.791L112.927,122.587z
			 M92.541,93.529c-17.217,0-31.177-13.963-31.177-31.177c0-17.217,13.959-31.176,31.177-31.176
			c17.214,0,31.176,13.959,31.176,31.176C123.717,79.566,109.755,93.529,92.541,93.529z"/>
	</g>
</g>
<g>
</g>
<g>
</g>
<g>
</g>
<g>
</g>
<g>
</g>
<g>
</g>
<g>
</g>
<g>
</g>
<g>
</g>
<g>
</g>
<g>
</g>
<g>
</g>
<g>
</g>
<g>
</g>
<g>
</g>
</svg>
