<?xml version="1.0" encoding="iso-8859-1"?>
<!-- Generator: Adobe Illustrator 19.0.0, SVG Export Plug-In . SVG Version: 6.00 Build 0)  -->
<svg version="1.1" id="Capa_1" xmlns="http://www.w3.org/2000/svg" xmlns:xlink="http://www.w3.org/1999/xlink" x="0px" y="0px"
	 viewBox="0 0 465 465" style="enable-background:new 0 0 465 465;" xml:space="preserve">
<path d="M396.902,68.098C352.988,24.184,294.603,0,232.5,0S112.011,24.184,68.098,68.098S0,170.396,0,232.5
	s24.184,120.489,68.098,164.402C112.011,440.815,170.396,465,232.5,465s120.489-24.184,164.402-68.098S465,294.603,465,232.5
	S440.815,112.011,396.902,68.098z M447.77,263.793H266.675l148.874-148.874C437.97,149.671,450,190.158,450,232.5
	C450,243.067,449.242,253.516,447.77,263.793z M201.207,245.461v-25.924l18.331-18.331h25.924l18.331,18.331v25.924l-18.331,18.331
	h-25.924L201.207,245.461z M406.919,102.504c-0.35,0.246-0.686,0.518-0.999,0.83L278.793,230.462V19.922
	c40.427,8.72,77.563,28.842,107.502,58.782C393.796,86.205,400.674,94.162,406.919,102.504z M263.793,17.23v181.095L114.919,49.451
	C149.671,27.03,190.158,15,232.5,15C243.067,15,253.516,15.758,263.793,17.23z M78.704,78.704
	c7.501-7.501,15.458-14.379,23.8-20.624c0.246,0.349,0.518,0.686,0.83,0.999l127.127,127.127H19.922
	C28.642,145.779,48.764,108.644,78.704,78.704z M17.23,201.207h181.095L49.451,350.081C27.03,315.328,15,274.841,15,232.5
	C15,221.933,15.758,211.483,17.23,201.207z M58.08,362.495c0.349-0.246,0.686-0.518,0.999-0.83l127.127-127.127v210.54
	c-40.427-8.72-77.562-28.842-107.502-58.782C71.203,378.795,64.325,370.838,58.08,362.495z M201.207,447.77V266.674l148.874,148.875
	C315.328,437.97,274.841,450,232.5,450C221.933,450,211.483,449.242,201.207,447.77z M386.295,386.295
	c-7.501,7.501-15.458,14.379-23.8,20.624c-0.246-0.349-0.518-0.686-0.83-0.999L234.538,278.793h210.539
	C436.358,319.22,416.235,356.355,386.295,386.295z"/>
<g>
</g>
<g>
</g>
<g>
</g>
<g>
</g>
<g>
</g>
<g>
</g>
<g>
</g>
<g>
</g>
<g>
</g>
<g>
</g>
<g>
</g>
<g>
</g>
<g>
</g>
<g>
</g>
<g>
</g>
</svg>
