<svg id="Layer_1" data-name="Layer 1" xmlns="http://www.w3.org/2000/svg" viewBox="0 0 137.76 106.83"><defs><style>.cls-1{fill:#939598;}</style></defs><title>guest-book</title><path class="cls-1" d="M385.58,649H375.06a18,18,0,0,1,1.73,2.14,17.7,17.7,0,0,0-1.73-2.13,31.35,31.35,0,0,0-5.29-4.38,49.34,49.34,0,0,0-16.89-7c-11.57-2.57-25.64-1.44-33.1,8.89-0.07.1-.16,0.19-0.24,0.3h0c0.07-.11.16-0.2,0.24-0.31a23.66,23.66,0,0,0-13.57-9c-11.8-3.1-25.74.25-35.86,6.71a29.21,29.21,0,0,0-5.82,4.75,16.43,16.43,0,0,0-3,4.5,13,13,0,0,0-.52,1.33c-0.59,1.89-.35,4-0.35,6v69.5a1.51,1.51,0,0,0,1.9,1.45,90.9,90.9,0,0,1,21.72-5.38c11.14-1.4,24.58-.68,32.4,8.29H254.58V653.53h7a16.49,16.49,0,0,1,3-4.5H252.33a2.27,2.27,0,0,0-2.25,2.25V741a2.27,2.27,0,0,0,2.25,2.25H385.58a2.05,2.05,0,0,0,1.43-.55,1.57,1.57,0,0,0,.16-0.12l0.11-.14a2.07,2.07,0,0,0,.56-1.44V651.28A2.28,2.28,0,0,0,385.58,649Zm-7.49,4.5h5.24v81.19a2.2,2.2,0,0,0-.25-0.05H322.65c8.69-7.23,21.43-7.82,32.25-7a100.58,100.58,0,0,1,22.11,4.1,1.51,1.51,0,0,0,1.9-1.44V661.21a26.26,26.26,0,0,0-.22-5.91,11.41,11.41,0,0,0-.59-1.78,13.15,13.15,0,0,0-1-1.74A13.3,13.3,0,0,1,378.1,653.52Zm-57.43-2.91c0,0.7.1,0.1,0.31-.31a20.76,20.76,0,0,1,1.37-2.22c3.44-4.94,9.24-7.39,15-8.27,6.26-1,12.81,0,18.82,1.82a40.09,40.09,0,0,1,15.27,8.07,14.94,14.94,0,0,1,3.91,5.07,10.28,10.28,0,0,1,.43,1.32c0,0.16.12,0.9,0.12,0.51v71.75a108.3,108.3,0,0,0-21.42-3.71c-11.33-.86-24.52.13-33.62,7.62q0-19.71-.1-39.41l9.9,10.57,4,4.26a1.51,1.51,0,0,0,2.12,0l8-9a1.53,1.53,0,0,0,0-2.12l-24.1-25.75q0-8.43,0-16.87c0-1,0-1.9,0-2.85v-0.51Zm-21.94,14.3-2.93-3.13,6.57-6.15,37,39.55,2.32,2.49-6,6.73ZM285.86,723.2a92.64,92.64,0,0,0-22.19,5V657.54a4.35,4.35,0,0,1,.24-1.9c1.29-4.46,5.93-7.66,9.72-9.85a49.39,49.39,0,0,1,17.68-5.92c6-.86,12.53-0.56,18.11,1.94a20,20,0,0,1,6.94,5.14,16.32,16.32,0,0,1,1.7,2.43,12.49,12.49,0,0,1,1.31-2.24,13.07,13.07,0,0,0-1.31,2.25,4.12,4.12,0,0,0-.38,1.6c0,0.89,0,1.78,0,2.67l0,11.28c0,0.89,0,1.79,0,2.68L306.81,656l-3.3-3.53a1.51,1.51,0,0,0-2.12,0l-8.76,8.2a1.29,1.29,0,0,0-.36,1.48,1.47,1.47,0,0,0,.35.65l25.13,26.86,0.1,40.7c0,0.43,0,.85,0,1.27,0,1.35,0,2.69,0,4,0-1.35,0-2.69,0-4C309.68,723.42,297.15,722.07,285.86,723.2Zm97.23,16a2.09,2.09,0,0,0,2.16-2.12A2.09,2.09,0,0,1,383.08,739.17Z" transform="translate(-250.08 -636.39)"/><path class="cls-1" d="M337.15,707.65a1.52,1.52,0,0,0,.67,2.51l10.88,3.75a1.51,1.51,0,0,0,1.84-1.84q-1.5-5.7-3-11.39a1.34,1.34,0,0,0-1.29-1.06,1.38,1.38,0,0,0-1.22.4Zm9.77,2.48-5.91-2,4.28-4.15Q346.1,707,346.91,710.13Z" transform="translate(-250.08 -636.39)"/><path class="cls-1" d="M298.34,649l-9,7.91c-1.45,1.28.68,3.39,2.12,2.12l9-7.91C301.91,649.81,299.78,647.7,298.34,649Z" transform="translate(-250.08 -636.39)"/></svg>