<?xml version="1.0" encoding="iso-8859-1"?>
<!-- Generator: Adobe Illustrator 19.0.0, SVG Export Plug-In . SVG Version: 6.00 Build 0)  -->
<svg version="1.1" id="Layer_1" xmlns="http://www.w3.org/2000/svg" xmlns:xlink="http://www.w3.org/1999/xlink" x="0px" y="0px"
	 viewBox="0 0 512 512" style="enable-background:new 0 0 512 512;" xml:space="preserve">
<g>
	<g>
		<g>
			<path d="M172.561,178.193c5.743,1.016,11.332,1.527,16.623,1.527h0.008c32.29,0,46.908-17.869,49.604-33.169
				c3.567-20.241-10.999-45.261-51.422-52.386c-4.813-0.853-9.916-1.28-15.138-1.28c-30.43,0-65.331,15.403-67.891,29.961
				c-2.091,11.802,13.542,26.325,20.361,32.026C133.146,161.92,150.579,174.319,172.561,178.193z M172.237,109.952
				c4.233,0,8.337,0.341,12.177,1.024c27.588,4.855,39.782,20.087,37.581,32.606c-2.543,14.379-21.888,22.135-46.473,17.809
				c-27.264-4.813-50.645-27.469-53.973-35.49C126.165,121.045,147.226,109.952,172.237,109.952z"/>
			<path d="M503.467,0c-10.146,0-18.756,7.134-27.87,14.677c-11.008,9.122-23.484,19.456-40.397,19.456
				c-14.131,0-25.173-3.2-37.965-6.904c-16.427-4.77-35.038-10.163-64.435-10.163c-36.753,0-54.246,23.526-65.826,39.083
				c-3.319,4.463-8.875,11.93-10.974,12.117c-2.108-0.188-7.663-7.654-10.982-12.117c-11.58-15.556-29.073-39.083-65.818-39.083
				c-29.406,0-48.017,5.393-64.444,10.163c-12.792,3.703-23.834,6.904-37.956,6.904c-16.922,0-29.397-10.334-40.405-19.456
				C27.281,7.134,18.671,0,8.533,0C3.814,0,0,3.823,0,8.533c0,25.975,5.897,55.979,17.067,86.835V359.97
				C7.151,363.511,0,372.89,0,384v102.4C0,500.514,11.477,512,25.6,512c14.114,0,25.6-11.486,25.6-25.6V384
				c0-11.11-7.159-20.489-17.067-24.03V93.867c0-1.007-0.179-1.997-0.529-2.935c-8.815-24.038-14.362-48.196-16.017-69.427
				c2.543,1.86,5.248,4.104,7.919,6.315C37.419,37.692,53.726,51.2,76.8,51.2c16.546,0,29.252-3.678,42.701-7.586
				c16.085-4.659,32.717-9.481,59.699-9.481c28.169,0,41.455,17.852,52.13,32.205c7.586,10.189,14.131,18.995,24.67,18.995
				c10.53,0,17.075-8.806,24.661-18.995c10.675-14.353,23.962-32.205,52.139-32.205c26.974,0,43.605,4.821,59.691,9.481
				c13.449,3.908,26.155,7.586,42.709,7.586c23.066,0,39.373-13.508,51.285-23.381c2.68-2.21,5.393-4.463,7.927-6.323
				c-6.289,82.381-69.888,200.371-144.546,200.371c-38.417,0-52.335,12.049-63.522,21.726C278.016,250.795,272,256,256,256
				s-22.025-5.205-30.353-12.407c-11.187-9.677-25.105-21.726-63.514-21.726c-47.189,0-83.029-45.568-100.198-72.73
				c-2.517-3.994-7.799-5.18-11.776-2.654c-3.977,2.517-5.171,7.782-2.654,11.767c32.879,52.028,73.591,80.683,114.628,80.683
				c32.051,0,42.368,8.934,52.352,17.562c9.412,8.149,19.149,16.572,41.515,16.572c22.357,0,32.094-8.422,41.506-16.572
				c9.984-8.627,20.301-17.562,52.361-17.562C439.364,238.933,512,99.516,512,8.533C512,3.823,508.177,0,503.467,0z M25.6,375.467
				c4.702,0,8.533,3.831,8.533,8.533v102.4c0,4.702-3.831,8.533-8.533,8.533c-4.71,0-8.533-3.831-8.533-8.533V384
				C17.067,379.298,20.89,375.467,25.6,375.467z"/>
			<path d="M322.807,179.721c5.291,0,10.88-0.512,16.623-1.527c21.99-3.874,39.424-16.282,47.855-23.33
				c6.827-5.692,22.451-20.224,20.361-32.017c-2.56-14.566-37.453-29.969-67.883-29.969c-5.222,0-10.325,0.435-15.147,1.28
				c-17.417,3.072-31.488,9.899-40.713,19.746c-8.815,9.395-12.715,21.299-10.709,32.64
				C275.883,161.852,290.492,179.721,322.807,179.721z M296.354,125.568c4.659-4.975,13.858-11.537,31.224-14.601
				c3.849-0.683,7.953-1.024,12.186-1.024c25.011,0,46.071,11.102,50.688,15.949c-3.328,8.021-26.709,30.686-53.982,35.499
				c-24.619,4.326-43.947-3.439-46.473-17.809C288.922,137.489,291.183,131.089,296.354,125.568z"/>
		</g>
	</g>
</g>
<g>
</g>
<g>
</g>
<g>
</g>
<g>
</g>
<g>
</g>
<g>
</g>
<g>
</g>
<g>
</g>
<g>
</g>
<g>
</g>
<g>
</g>
<g>
</g>
<g>
</g>
<g>
</g>
<g>
</g>
</svg>
