<?xml version="1.0" encoding="iso-8859-1"?>
<!-- Generator: Adobe Illustrator 19.0.0, SVG Export Plug-In . SVG Version: 6.00 Build 0)  -->
<svg version="1.1" id="Layer_1" xmlns="http://www.w3.org/2000/svg" xmlns:xlink="http://www.w3.org/1999/xlink" x="0px" y="0px"
	 viewBox="0 0 512 512" style="enable-background:new 0 0 512 512;" xml:space="preserve">
<g>
	<g>
		<g>
			<path d="M441.062,110.933c0-4.71-3.814-8.533-8.533-8.533H44.8c-4.71,0-8.533,3.823-8.533,8.533c0,4.71,3.823,8.533,8.533,8.533
				h387.729C437.248,119.467,441.062,115.644,441.062,110.933z"/>
			<path d="M503.467,443.733H366.933c-4.719,0-8.533,3.823-8.533,8.533s3.814,8.533,8.533,8.533h136.533
				c4.719,0,8.533-3.823,8.533-8.533S508.186,443.733,503.467,443.733z"/>
			<path d="M204.8,153.6c-9.412,0-17.067,7.654-17.067,17.067v68.267c0,9.412,7.654,17.067,17.067,17.067H256
				c9.412,0,17.067-7.654,17.067-17.067v-68.267c0-9.412-7.654-17.067-17.067-17.067H204.8z M204.8,238.933v-68.267H256
				l0.009,68.267H204.8z"/>
			<path d="M25.6,375.467h72.67c4.71,0,8.533-3.823,8.533-8.533s-3.823-8.533-8.533-8.533H25.6c-4.702,0-8.533-3.831-8.533-8.533
				V307.2H25.6c4.71,0,8.533-3.823,8.533-8.533s-3.823-8.533-8.533-8.533h-8.533v-17.067H25.6c4.71,0,8.533-3.823,8.533-8.533
				S30.31,256,25.6,256h-8.533V128c0-33.493,26.24-59.733,59.733-59.733h324.267c33.493,0,59.733,26.24,59.733,59.733v204.8
				c0,4.71,3.814,8.533,8.533,8.533s8.533-3.823,8.533-8.533V128c0-43.068-33.732-76.8-76.8-76.8H76.8C33.732,51.2,0,84.932,0,128
				v221.867C0,363.981,11.486,375.467,25.6,375.467z"/>
			<path d="M401.067,341.333c4.719,0,8.533-3.823,8.533-8.533V170.667c0-9.412-7.663-17.067-17.067-17.067h-68.267
				c-9.412,0-17.067,7.654-17.067,17.067V332.8c0,4.71,3.814,8.533,8.533,8.533s8.533-3.823,8.533-8.533v-59.733h8.533
				c4.719,0,8.533-3.823,8.533-8.533S337.519,256,332.8,256h-8.533v-85.333h68.267V332.8
				C392.533,337.51,396.348,341.333,401.067,341.333z"/>
			<path d="M332.8,443.733h-17.067c-4.719,0-8.533,3.823-8.533,8.533s3.814,8.533,8.533,8.533H332.8
				c4.719,0,8.533-3.823,8.533-8.533S337.519,443.733,332.8,443.733z"/>
			<path d="M264.533,443.733H179.2c-4.71,0-8.533,3.823-8.533,8.533s3.823,8.533,8.533,8.533h85.333
				c4.719,0,8.533-3.823,8.533-8.533S269.252,443.733,264.533,443.733z"/>
			<path d="M204.8,366.933c0-14.114-11.486-25.6-25.6-25.6s-25.6,11.486-25.6,25.6s11.486,25.6,25.6,25.6
				S204.8,381.048,204.8,366.933z M170.667,366.933c0-4.702,3.831-8.533,8.533-8.533c4.702,0,8.533,3.831,8.533,8.533
				c0,4.702-3.831,8.533-8.533,8.533C174.498,375.467,170.667,371.635,170.667,366.933z"/>
			<path d="M238.251,375.467h265.216c4.719,0,8.533-3.823,8.533-8.533s-3.814-8.533-8.533-8.533H238.251
				c-4.156-28.902-29.022-51.2-59.051-51.2c-32.939,0-59.733,26.795-59.733,59.733c0,32.939,26.795,59.733,59.733,59.733
				C209.229,426.667,234.095,404.369,238.251,375.467z M136.533,366.933c0-23.526,19.14-42.667,42.667-42.667
				s42.667,19.14,42.667,42.667c0,23.526-19.14,42.667-42.667,42.667S136.533,390.46,136.533,366.933z"/>
			<path d="M128,443.733H8.533c-4.71,0-8.533,3.823-8.533,8.533s3.823,8.533,8.533,8.533H128c4.71,0,8.533-3.823,8.533-8.533
				S132.71,443.733,128,443.733z"/>
			<path d="M85.333,153.6c-9.412,0-17.067,7.654-17.067,17.067v68.267c0,9.412,7.654,17.067,17.067,17.067h51.2
				c9.412,0,17.067-7.654,17.067-17.067v-68.267c0-9.412-7.654-17.067-17.067-17.067H85.333z M85.333,238.933v-68.267h51.2
				l0.009,68.267H85.333z"/>
		</g>
	</g>
</g>
<g>
</g>
<g>
</g>
<g>
</g>
<g>
</g>
<g>
</g>
<g>
</g>
<g>
</g>
<g>
</g>
<g>
</g>
<g>
</g>
<g>
</g>
<g>
</g>
<g>
</g>
<g>
</g>
<g>
</g>
</svg>
