<svg id="Layer_1" data-name="Layer 1" xmlns="http://www.w3.org/2000/svg" viewBox="0 0 155.94 118.5"><defs><style>.cls-1{fill:#39c0c4;}</style></defs><title>new wing left</title><path class="cls-1" d="M238.88,160.5H109.82c-13.16,0-23.82-11-23.82-23.37h0a2.72,2.72,0,0,1,2.8-2.63H219.21c12.36,0,22.45,10.29,22.7,21.9l0,1.17A3,3,0,0,1,238.88,160.5Z" transform="translate(-86 -134.5)"/><path class="cls-1" d="M234.88,207H141.82C128.67,207,118,196,118,183.63h0a2.72,2.72,0,0,1,2.8-2.63h94.41c12.36,0,22.45,10.29,22.7,21.9l0,1.17A3,3,0,0,1,234.88,207Z" transform="translate(-86 -134.5)"/><path class="cls-1" d="M230.38,253H174.32c-13.16,0-23.82-11-23.82-23.37h0a2.72,2.72,0,0,1,2.8-2.63h57.41c12.36,0,22.45,10.29,22.7,21.9l0,1.17A3,3,0,0,1,230.38,253Z" transform="translate(-86 -134.5)"/></svg>