<svg id="Layer_1" data-name="Layer 1" xmlns="http://www.w3.org/2000/svg" viewBox="0 0 163.44 117.5"><defs><style>.cls-1{fill:#39c0c4;}</style></defs><title>new wing right</title><path class="cls-1" d="M1557.06,160.5h129.06c13.16,0,23.82-11,23.82-23.37h0a2.72,2.72,0,0,0-2.8-2.63H1576.73c-12.36,0-22.45,10.29-22.7,21.9l0,1.17A3,3,0,0,0,1557.06,160.5Z" transform="translate(-1546.5 -134.5)"/><path class="cls-1" d="M1553.06,207h93.06c13.16,0,23.82-11,23.82-23.37h0a2.72,2.72,0,0,0-2.8-2.63h-94.41c-12.36,0-22.45,10.29-22.7,21.9l0,1.17A3,3,0,0,0,1553.06,207Z" transform="translate(-1546.5 -134.5)"/><path class="cls-1" d="M1549.56,252h56.06c13.16,0,23.82-10,23.82-22.37h0a2.72,2.72,0,0,0-2.8-2.63h-57.41c-12.36,0-22.45,9.29-22.7,20.9l0,1.17A3,3,0,0,0,1549.56,252Z" transform="translate(-1546.5 -134.5)"/></svg>