<svg id="Layer_1" data-name="Layer 1" xmlns="http://www.w3.org/2000/svg" viewBox="0 0 72.12 74.92"><defs><style>.cls-1{fill:#939598;}</style></defs><title>camera-side2</title><path class="cls-1" d="M1304.79,721.46v28.06a1.17,1.17,0,1,0,2.34,0V721.46A1.17,1.17,0,1,0,1304.79,721.46Z" transform="translate(-1283.41 -689.85)"/><path class="cls-1" d="M1329.49,690.27l-2,.84a5.84,5.84,0,0,0-3.55,5.44v7.73a5.84,5.84,0,0,0,3.55,5.44,3.42,3.42,0,0,1,2.08,3.19v8.41l-6.67,1.63v-0.75a3.65,3.65,0,0,0-3.15-3.49l-3.74-.65a2.32,2.32,0,0,0-1.61-1.52l-3.65-.95h0l-0.1,0h-24.89a1.17,1.17,0,1,0-2.33,0v39.75a1.17,1.17,0,1,0,2.33,0h24.89l0.1,0h0l3.65-.95a2.32,2.32,0,0,0,1.61-1.52l3.74-.65a3.65,3.65,0,0,0,3.15-3.49V748l6.67,1.63v9.22a5.79,5.79,0,0,0,5.67,5.89h11.25a5.79,5.79,0,0,0,5.67-5.89v-3.46h1.08a2.34,2.34,0,0,0,2.29-2.38V718a2.34,2.34,0,0,0-2.29-2.38h-1.08V695.74a5.79,5.79,0,0,0-5.67-5.89h-14.89A5.43,5.43,0,0,0,1329.49,690.27Zm-10.13,30.85a1.3,1.3,0,0,1,1.2,1.1v1.32l-2.38.58a5.59,5.59,0,0,0-2,1v-4.52Zm-5.56,29.58v1.39l-2.17.56V718.34l2.17,0.56v31.79Zm-4.5,2.29H1297V718h12.29v35Zm-19-6.93h4.42v2.25h-4.42v-2.25Zm0-4.68h4.42v2.25h-4.42v-2.25Zm0-4.68h4.42V739h-4.42v-2.25Zm0-4.68h4.42v2.25h-4.42V732Zm0-4.68h4.42v2.25h-4.42v-2.25Zm0-4.68h4.42v2.25h-4.42v-2.25Zm0-4.68h4.42v2.25h-4.42V718Zm4.42,32.74V753h-4.42v-2.25h4.42ZM1287.91,718v35h-2.17V718h2.17Zm32.64,30.78a1.3,1.3,0,0,1-1.2,1.1l-3.22.56v-4.52a5.59,5.59,0,0,0,2,1l2.38,0.58v1.32Zm-1.85-4.26a3.43,3.43,0,0,1-2.57-3.37v-11.3a3.43,3.43,0,0,1,2.57-3.37l14.39-3.52a9.73,9.73,0,0,1,2.31-.28h14.41v25.64H1335.4a9.73,9.73,0,0,1-2.31-.28ZM1352.15,732h1V739h-1V732Zm-5.67,30.31h-11.25a3.4,3.4,0,0,1-3.33-3.46v-8.65l0.67,0.16a12,12,0,0,0,2.85.34h14.41v8.14A3.4,3.4,0,0,1,1346.48,762.34Zm5.67-9.35v-11.6h1V753h-1Zm1-35v11.6h-1V718h1Zm-6.71-25.72a3.4,3.4,0,0,1,3.33,3.46v24.51H1335.4a12,12,0,0,0-2.85.34l-0.67.16v-7.84a5.84,5.84,0,0,0-3.55-5.44,3.42,3.42,0,0,1-2.08-3.19v-7.73a3.42,3.42,0,0,1,2.08-3.19l2-.84a3.19,3.19,0,0,1,1.23-.25h14.89Z" transform="translate(-1283.41 -689.85)"/><path class="cls-1" d="M1328.43,698.08v4.68a1.17,1.17,0,1,0,2.34,0v-4.68A1.17,1.17,0,1,0,1328.43,698.08Z" transform="translate(-1283.41 -689.85)"/><path class="cls-1" d="M1335.18,707.43a5.85,5.85,0,0,0,4.5,5.76v2.42a1.17,1.17,0,1,0,2.34,0V713.2a5.85,5.85,0,0,0,4.5-5.76A5.67,5.67,0,1,0,1335.18,707.43Zm9,0a3.34,3.34,0,1,1-3.33-3.46A3.4,3.4,0,0,1,1344.18,707.43Z" transform="translate(-1283.41 -689.85)"/><path class="cls-1" d="M1347.65,739.92v-8.85a3.74,3.74,0,0,0-3.66-3.8h-4a3.74,3.74,0,0,0-3.66,3.8v8.85a3.74,3.74,0,0,0,3.66,3.8h4A3.74,3.74,0,0,0,1347.65,739.92Zm-2.34-3.3h-6.67v-2.25h6.67v2.25Zm-5.34-6.93h4a1.35,1.35,0,0,1,1.32,1.38v0.87h-6.67v-0.87A1.35,1.35,0,0,1,1340,729.69Zm0,11.6a1.35,1.35,0,0,1-1.32-1.38V739h6.67v0.87a1.35,1.35,0,0,1-1.32,1.38h-4Z" transform="translate(-1283.41 -689.85)"/></svg>