<svg id="Layer_1" data-name="Layer 1" xmlns="http://www.w3.org/2000/svg" viewBox="0 0 123.93 143"><defs><style>.cls-1{fill:#939598;}</style></defs><title>champagne</title><path class="cls-1" d="M601.76,673.25h0a2.38,2.38,0,1,0,2.41,2.38,2.37,2.37,0,0,0-2.41-2.38Z" transform="translate(-561.17 -620.82)"/><path class="cls-1" d="M597,692.32h0a2.38,2.38,0,1,0,2.41,2.38,2.37,2.37,0,0,0-2.41-2.38Z" transform="translate(-561.17 -620.82)"/><path class="cls-1" d="M587.46,701.85h0a2.38,2.38,0,1,0,2.41,2.38,2.37,2.37,0,0,0-2.41-2.38Z" transform="translate(-561.17 -620.82)"/><path class="cls-1" d="M577.93,678h0a2.38,2.38,0,1,0,2.41,2.38A2.37,2.37,0,0,0,577.9,678Z" transform="translate(-561.17 -620.82)"/><path class="cls-1" d="M616,620.82H563.55a2.38,2.38,0,0,0-2.38,2.38v14.3c0,49.87,9.75,80.53,26.22,83.2V759h-14.3a2.38,2.38,0,0,0,0,4.77h33.37a2.38,2.38,0,1,0,0-4.77h-14.3V720.7c16.46-2.68,26.22-33.34,26.22-83.2V623.2A2.38,2.38,0,0,0,616,620.82ZM613.6,637.5c0,47-9.58,78.65-23.83,78.65-10.83,0-19-18.26-22.24-47.67h37.83a2.38,2.38,0,0,0,0-4.77H567.05c-0.72-8-1.11-16.81-1.11-26.22V625.58H613.6V637.5Z" transform="translate(-561.17 -620.82)"/><path class="cls-1" d="M587.46,687.55h0a2.38,2.38,0,1,0,2.41,2.38,2.37,2.37,0,0,0-2.41-2.38Z" transform="translate(-561.17 -620.82)"/><path class="cls-1" d="M685.1,637.5V623.2a2.38,2.38,0,0,0-2.38-2.38H630.29a2.38,2.38,0,0,0-2.38,2.38v14.3c0,49.87,9.75,80.53,26.22,83.2V759h-14.3a2.38,2.38,0,1,0,0,4.77h33.37a2.38,2.38,0,1,0,0-4.77h-14.3V720.7C675.35,718,685.1,687.37,685.1,637.5Zm-28.6,78.65c-12.5,0-21.4-24.29-23.4-62h39a2.38,2.38,0,0,0,0-4.77H632.89q-0.21-5.78-.22-11.92V625.58h47.67V637.5C680.34,684.54,670.76,716.15,656.5,716.15Z" transform="translate(-561.17 -620.82)"/><path class="cls-1" d="M644.66,682.78h0a2.38,2.38,0,1,0,2.41,2.38,2.37,2.37,0,0,0-2.41-2.38Z" transform="translate(-561.17 -620.82)"/><path class="cls-1" d="M659,673.25h0a2.38,2.38,0,1,0,2.41,2.38,2.37,2.37,0,0,0-2.41-2.38Z" transform="translate(-561.17 -620.82)"/><path class="cls-1" d="M666.11,685.17a2.38,2.38,0,0,0-2.38-2.38h0A2.38,2.38,0,1,0,666.11,685.17Z" transform="translate(-561.17 -620.82)"/><path class="cls-1" d="M654.19,697.08h0a2.38,2.38,0,1,0,2.41,2.38,2.37,2.37,0,0,0-2.41-2.38Z" transform="translate(-561.17 -620.82)"/><path class="cls-1" d="M668.49,668.48a2.38,2.38,0,0,0,0-4.77h0A2.38,2.38,0,0,0,668.49,668.48Z" transform="translate(-561.17 -620.82)"/><path class="cls-1" d="M644.66,663.72h0A2.38,2.38,0,1,0,647,666.1a2.37,2.37,0,0,0-2.41-2.38Z" transform="translate(-561.17 -620.82)"/></svg>