<svg id="Layer_1" data-name="Layer 1" xmlns="http://www.w3.org/2000/svg" viewBox="0 0 116.16 105.81"><defs><style>.cls-1{fill:#929497;}</style></defs><title>faq</title><path class="cls-1" d="M614.29,871.37c0,3.52-2.56,5.66-4.43,7.23-0.71.59-2,1.68-2,2.09a2.84,2.84,0,0,1-2.86,2.86h0a2.84,2.84,0,0,1-2.88-2.81c0-3.12,2.25-5,4.08-6.52,1.44-1.21,2.38-2.05,2.38-2.83a2.85,2.85,0,0,0-5.7,0,2.88,2.88,0,1,1-5.76,0A8.61,8.61,0,0,1,614.29,871.37ZM605,886.2a2.83,2.83,0,0,0-2.82,2.88v0A2.82,2.82,0,0,0,605,892,2.89,2.89,0,0,0,605,886.2ZM547,906.26a2.88,2.88,0,1,0,0,5.76h0.24a2.88,2.88,0,1,0,0-5.76H547Zm10,0a2.88,2.88,0,1,0,0,5.76h0.24a2.88,2.88,0,1,0,0-5.76H557Zm84.59-46v32.42a13.84,13.84,0,0,1-13.83,13.9H588.57c-0.53,0-1.12,0-1.35,0s-0.83.7-1.4,1.23l-0.76.69-10.57,9.63a2.95,2.95,0,0,1-4.91-2.13V885.46H539.41a8.25,8.25,0,0,0-8.23,8.19v32.42a8.13,8.13,0,0,0,8.23,8h41.72a2.89,2.89,0,0,1,1.92.81l8.61,7.94V915.48a2.88,2.88,0,0,1,5.76,0v33.9a2.84,2.84,0,0,1-1.7,2.62,2.76,2.76,0,0,1-1.14.23,2.91,2.91,0,0,1-1.94-.78L580,939.86h-40.6a13.89,13.89,0,0,1-14-13.8V893.65a14,14,0,0,1,14-13.95h30.17V860.26a14,14,0,0,1,14-13.84h44.13A13.79,13.79,0,0,1,641.58,860.26Zm-5.76,0a8,8,0,0,0-8.07-8.08H583.62a8.2,8.2,0,0,0-8.28,8.08v49.21l5.79-5.23c0.27-.24.57-0.47,0.79-0.67,2.64-2.44,3.32-2.83,6.77-2.75h39.06a8.08,8.08,0,0,0,8.07-8.14V860.26h0Z" transform="translate(-525.42 -846.42)"/></svg>