<svg id="Layer_1" data-name="Layer 1" xmlns="http://www.w3.org/2000/svg" viewBox="0 0 98.62 97.25"><defs><style>.cls-1{fill:#929497;}</style></defs><title>info</title><path class="cls-1" d="M583.42,328A19.5,19.5,0,1,0,611,328,19.52,19.52,0,0,0,583.42,328Zm28.44,22.41V333.17A17.06,17.06,0,0,1,611.86,350.42Zm-2.5-20.51v23.77l-0.13.14a17,17,0,0,1-26.56-3.22h1.44a1.25,1.25,0,0,0,0-2.5h-2.69a17.08,17.08,0,0,1-1.14-7.73h9.83a1.25,1.25,0,0,0,0-2.5h-9.44a16.89,16.89,0,0,1,4.17-7.73h16a1.25,1.25,0,0,0,0-2.5H587.79a17,17,0,0,1,21.44,2.13Z" transform="translate(-538.11 -307.6)"/><path class="cls-1" d="M635.42,373.63l-18.11-18.11a24.33,24.33,0,0,0-9.2-35.49V308.85a1.25,1.25,0,0,0-1.25-1.25H552a1.25,1.25,0,0,0-.88.37l-12.67,12.67a1.25,1.25,0,0,0-.37.88V403.6a1.25,1.25,0,0,0,1.25,1.25h67.5a1.25,1.25,0,0,0,1.25-1.25V363.54a24.11,24.11,0,0,0,2.83-1.66L629.05,380A4.5,4.5,0,1,0,635.42,373.63ZM619,341.79a21.82,21.82,0,1,1-6.4-15.44A21.69,21.69,0,0,1,619,341.79Zm-68.26-29.93v8.4h-8.4Zm54.83,90.48h-65V322.77H552a1.25,1.25,0,0,0,1.25-1.25V310.1h52.33V319a24.37,24.37,0,0,0-29.52,10.71H564.36a1.25,1.25,0,0,0,0,2.5h10.48a24.07,24.07,0,0,0-1.56,5.13h-23a1.25,1.25,0,0,0,0,2.5H573q-0.08,1-.08,2a24.71,24.71,0,0,0,.2,3.13H561.36a1.25,1.25,0,0,0,0,2.5h12.16a24,24,0,0,0,1.84,5.13H550.24a1.25,1.25,0,0,0,0,2.5h26.56a24.58,24.58,0,0,0,3.21,4c0.41,0.41.84,0.8,1.27,1.17H577a1.25,1.25,0,0,0,0,2.5h7.72a24.4,24.4,0,0,0,20.9,2v37.72ZM614.42,359q0.71-.71,1.36-1.47l12.82,12.82-2.83,2.83-12.82-12.82C613.45,359.92,613.94,359.48,614.42,359Zm19.23,19.23a2,2,0,0,1-2.83,0l-3.29-3.29,2.83-2.83,3.29,3.29A2,2,0,0,1,633.65,378.23Z" transform="translate(-538.11 -307.6)"/><path class="cls-1" d="M550.24,332.17h10a1.25,1.25,0,0,0,0-2.5h-10A1.25,1.25,0,0,0,550.24,332.17Z" transform="translate(-538.11 -307.6)"/><path class="cls-1" d="M550.24,347.42h6.88a1.25,1.25,0,0,0,0-2.5h-6.88A1.25,1.25,0,0,0,550.24,347.42Z" transform="translate(-538.11 -307.6)"/><path class="cls-1" d="M550.24,362.67h23.08a1.25,1.25,0,0,0,0-2.5H550.24A1.25,1.25,0,0,0,550.24,362.67Z" transform="translate(-538.11 -307.6)"/><path class="cls-1" d="M596,367.8H559.74a1.25,1.25,0,0,0,0,2.5H596A1.25,1.25,0,0,0,596,367.8Z" transform="translate(-538.11 -307.6)"/><path class="cls-1" d="M550.24,370.3h5.5a1.25,1.25,0,0,0,0-2.5h-5.5A1.25,1.25,0,0,0,550.24,370.3Z" transform="translate(-538.11 -307.6)"/><path class="cls-1" d="M596,383H572.36a1.25,1.25,0,0,0,0,2.5H596A1.25,1.25,0,0,0,596,383Z" transform="translate(-538.11 -307.6)"/><path class="cls-1" d="M550.24,385.55h18.2a1.25,1.25,0,0,0,0-2.5h-18.2A1.25,1.25,0,0,0,550.24,385.55Z" transform="translate(-538.11 -307.6)"/><path class="cls-1" d="M596,390.67H582.61a1.25,1.25,0,0,0,0,2.5H596A1.25,1.25,0,0,0,596,390.67Z" transform="translate(-538.11 -307.6)"/><path class="cls-1" d="M578.89,390.67H556.51a1.25,1.25,0,0,0,0,2.5h22.38A1.25,1.25,0,0,0,578.89,390.67Z" transform="translate(-538.11 -307.6)"/><path class="cls-1" d="M552.74,390.67h-2.5a1.25,1.25,0,0,0,0,2.5h2.5A1.25,1.25,0,0,0,552.74,390.67Z" transform="translate(-538.11 -307.6)"/><path class="cls-1" d="M596,375.42h-7.62a1.25,1.25,0,0,0,0,2.5H596A1.25,1.25,0,0,0,596,375.42Z" transform="translate(-538.11 -307.6)"/><path class="cls-1" d="M550.24,377.92H584a1.25,1.25,0,0,0,0-2.5H550.24A1.25,1.25,0,0,0,550.24,377.92Z" transform="translate(-538.11 -307.6)"/><path class="cls-1" d="M600.86,337.87h-4.37a1.25,1.25,0,0,0,0,2.5h4.38A1.25,1.25,0,0,0,600.86,337.87Z" transform="translate(-538.11 -307.6)"/><path class="cls-1" d="M600.86,348.1h-11.5a1.25,1.25,0,0,0,0,2.5h11.5A1.25,1.25,0,0,0,600.86,348.1Z" transform="translate(-538.11 -307.6)"/></svg>