<?xml version="1.0" encoding="iso-8859-1"?>
<!-- Generator: Adobe Illustrator 19.0.0, SVG Export Plug-In . SVG Version: 6.00 Build 0)  -->
<svg version="1.1" id="Capa_1" xmlns="http://www.w3.org/2000/svg" xmlns:xlink="http://www.w3.org/1999/xlink" x="0px" y="0px"
	 viewBox="0 0 463 463" style="enable-background:new 0 0 463 463;" xml:space="preserve">
<path d="M395.195,67.805C351.47,24.08,293.335,0,231.5,0S111.529,24.08,67.805,67.805S0,169.664,0,231.5
	S24.08,351.47,67.805,395.195S169.664,463,231.5,463s119.971-24.08,163.695-67.805S463,293.335,463,231.5
	S438.919,111.529,395.195,67.805z M443.392,186.803c-0.321,0.232-0.631,0.484-0.92,0.772l-79.886,79.886V59.168
	c7.689,5.873,15.045,12.285,22.002,19.243C414.732,108.555,434.877,146.025,443.392,186.803z M188.262,347.586l-72.848-72.848v-94.2
	l65.124-65.124h94.2l72.848,72.848v94.201l-65.124,65.124H188.262z M347.586,48.671v118.378L198.094,17.557
	C209.049,15.871,220.207,15,231.5,15C273.258,15,313.208,26.748,347.586,48.671z M78.411,78.411
	c28.553-28.552,63.68-48.134,101.964-57.36l79.362,79.362H59.168C65.042,92.725,71.454,85.369,78.411,78.411z M48.67,115.414
	h110.654L16.613,258.126C15.544,249.358,15,240.471,15,231.5C15,189.741,26.748,149.791,48.67,115.414z M19.607,276.196
	c0.321-0.232,0.631-0.484,0.92-0.772l79.886-79.886v208.294c-7.688-5.873-15.045-12.285-22.002-19.243
	C48.268,354.445,28.123,316.974,19.607,276.196z M115.414,414.329V295.951l149.491,149.491C253.951,447.129,242.792,448,231.5,448
	C189.741,448,149.791,436.252,115.414,414.329z M384.588,384.588c-28.553,28.552-63.68,48.134-101.965,57.36l-79.362-79.362h200.569
	C397.958,370.275,391.546,377.631,384.588,384.588z M414.329,347.586H303.675l142.712-142.712
	c1.068,8.767,1.613,17.655,1.613,26.626C448,273.258,436.252,313.208,414.329,347.586z"/>
<g>
</g>
<g>
</g>
<g>
</g>
<g>
</g>
<g>
</g>
<g>
</g>
<g>
</g>
<g>
</g>
<g>
</g>
<g>
</g>
<g>
</g>
<g>
</g>
<g>
</g>
<g>
</g>
<g>
</g>
</svg>
