<?xml version="1.0" encoding="iso-8859-1"?>
<!-- Generator: Adobe Illustrator 19.0.0, SVG Export Plug-In . SVG Version: 6.00 Build 0)  -->
<svg version="1.1" id="Layer_1" xmlns="http://www.w3.org/2000/svg" xmlns:xlink="http://www.w3.org/1999/xlink" x="0px" y="0px"
	 viewBox="0 0 512.001 512.001" style="enable-background:new 0 0 512.001 512.001;" xml:space="preserve">
<g>
	<g>
		<g>
			<path d="M42.96,121.831c-3.405,12.681-0.29,24.09,8.772,32.12c6.366,5.649,13.534,7.68,14.327,7.893
				c0.742,0.196,1.485,0.29,2.21,0.29c3.772,0,7.219-2.509,8.243-6.323c1.22-4.557-1.485-9.233-6.033-10.453
				c-0.043-0.009-4.096-1.22-7.433-4.181c-4.19-3.721-5.342-8.457-3.601-14.925c4.71-17.596-7.962-25.967-16.341-31.497
				c-9.182-6.059-10.564-7.987-9.259-12.843c3.396-12.681,0.282-24.09-8.772-32.12c-6.374-5.649-13.534-7.68-14.327-7.893
				c-4.599-1.254-9.242,1.485-10.453,6.033c-1.22,4.557,1.485,9.233,6.033,10.453c0.034,0.009,4.087,1.22,7.424,4.181
				c4.198,3.721,5.342,8.457,3.61,14.925c-4.719,17.596,7.953,25.967,16.341,31.497C42.874,115.047,44.265,116.976,42.96,121.831z"
				/>
			<path d="M247.469,0.001c-70.579,0-128,57.421-128,128s57.421,128,128,128c61.167,0,110.933-49.766,110.933-110.933
				S308.636,34.134,247.469,34.134c-51.763,0-93.867,42.112-93.867,93.867c0,51.755,42.104,93.867,93.867,93.867
				c42.351,0,76.8-34.458,76.8-76.8s-34.449-76.8-76.8-76.8c-32.939,0-59.733,26.795-59.733,59.733s26.795,59.733,59.733,59.733
				c4.71,0,8.533-3.823,8.533-8.533s-3.823-8.533-8.533-8.533c-23.526,0-42.667-19.14-42.667-42.667
				c0-23.526,19.14-42.667,42.667-42.667c32.93,0,59.733,26.795,59.733,59.733c0,32.939-26.803,59.733-59.733,59.733
				c-42.351,0-76.8-34.458-76.8-76.8s34.449-76.8,76.8-76.8c51.755,0,93.867,42.112,93.867,93.867
				c0,51.755-42.112,93.867-93.867,93.867c-61.175,0-110.933-49.766-110.933-110.933S186.294,17.067,247.469,17.067
				c70.579,0,128,57.421,128,128c0,33.084-16.521,72.713-40.166,96.367L85.336,491.401l-30.601-30.601l39.134-39.134l15.565,15.565
				c1.664,1.673,3.849,2.5,6.033,2.5s4.369-0.828,6.033-2.5c3.337-3.328,3.337-8.73,0-12.066l-15.565-15.565l130.5-130.5
				c3.328-3.336,3.328-8.73,0-12.066c-3.337-3.337-8.738-3.337-12.066,0L36.636,454.768c-3.337,3.336-3.337,8.73,0,12.066
				L79.303,509.5c1.664,1.664,3.849,2.5,6.033,2.5c2.185,0,4.361-0.836,6.033-2.5l256-256c26.59-26.59,45.167-71.185,45.167-108.433
				C392.536,65.076,327.461,0.001,247.469,0.001z"/>
			<path d="M77.059,34.134c4.71,0,8.533-3.823,8.533-8.533c0-4.71-3.823-8.533-8.533-8.533h-0.085c-4.719,0-8.491,3.823-8.491,8.533
				C68.483,30.311,72.34,34.134,77.059,34.134z"/>
			<path d="M384.259,307.201h-0.094c-4.702,0-8.482,3.823-8.482,8.533s3.857,8.533,8.576,8.533c4.71,0,8.533-3.823,8.533-8.533
				S388.969,307.201,384.259,307.201z"/>
			<path d="M510.953,13.799c-1.229-4.557-5.897-7.262-10.453-6.033c-4.548,1.22-7.262,5.905-6.033,10.453
				c0.008,0.043,0.981,4.156,0.094,8.516c-1.126,5.495-4.659,8.858-11.127,10.59c-17.596,4.71-18.509,19.866-19.106,29.901
				c-0.657,10.982-1.638,13.133-6.494,14.438c-12.681,3.405-21.001,11.802-23.424,23.654c-1.707,8.346,0.111,15.565,0.324,16.358
				c1.024,3.814,4.463,6.323,8.235,6.323c0.734,0,1.476-0.094,2.219-0.29c4.548-1.22,7.253-5.905,6.033-10.453
				c-0.009-0.043-0.99-4.156-0.094-8.516c1.126-5.487,4.659-8.858,11.127-10.59c17.596-4.719,18.509-19.874,19.106-29.901
				c0.657-10.982,1.63-13.141,6.494-14.438c12.68-3.396,21.001-11.802,23.424-23.654C512.984,21.82,511.166,14.593,510.953,13.799z"
				/>
			<path d="M459.25,173.168c-3.319-3.319-8.661-3.302-11.989-0.026c-3.345,3.285-3.388,8.678-0.128,12.041
				c2.56,2.645,10.121,12.049,0.051,22.118c-12.885,12.885-6.093,26.462-1.596,35.447c4.915,9.839,5.154,12.194,1.596,15.753
				c-16.947,16.947-9.284,36.915,0,46.2c1.655,1.655,3.823,2.492,5.99,2.492s4.335-0.828,5.999-2.466
				c3.345-3.285,3.388-8.678,0.128-12.041c-2.56-2.645-10.121-12.049-0.051-22.118c12.885-12.885,6.093-26.462,1.604-35.447
				c-4.924-9.839-5.163-12.194-1.604-15.753C476.197,202.42,468.534,182.452,459.25,173.168z"/>
		</g>
	</g>
</g>
<g>
</g>
<g>
</g>
<g>
</g>
<g>
</g>
<g>
</g>
<g>
</g>
<g>
</g>
<g>
</g>
<g>
</g>
<g>
</g>
<g>
</g>
<g>
</g>
<g>
</g>
<g>
</g>
<g>
</g>
</svg>
