<?xml version="1.0" encoding="iso-8859-1"?>
<!-- Generator: Adobe Illustrator 19.0.0, SVG Export Plug-In . SVG Version: 6.00 Build 0)  -->
<svg version="1.1" id="Layer_1" xmlns="http://www.w3.org/2000/svg" xmlns:xlink="http://www.w3.org/1999/xlink" x="0px" y="0px"
	 viewBox="0 0 188 188" style="enable-background:new 0 0 188 188;" xml:space="preserve">
<g>
	<g>
		<g>
			<path d="M165.992,56H154V28h-12V0H46v28H34v28H22.008C10.976,56,2,64.955,2,75.961V160h44v28h96v-28h44V75.961
				C186,64.955,177.024,56,165.992,56z M142,36h4v20h-4V36z M54,8h80v48H54V8z M42,36h4v20h-4V36z M134,180H54v-48h80V180z M178,152
				h-36v-20h16v-8h-16H46H30v8h16v20H10V75.961C10,69.365,15.387,64,22.008,64H34h12h96h12h11.992C172.613,64,178,69.365,178,75.961
				V152z"/>
			<path d="M150,76c-6.617,0-12,5.383-12,12s5.383,12,12,12s12-5.383,12-12S156.617,76,150,76z M150,92c-2.207,0-4-1.793-4-4
				c0-2.207,1.793-4,4-4c2.207,0,4,1.793,4,4C154,90.207,152.207,92,150,92z"/>
		</g>
	</g>
</g>
<g>
</g>
<g>
</g>
<g>
</g>
<g>
</g>
<g>
</g>
<g>
</g>
<g>
</g>
<g>
</g>
<g>
</g>
<g>
</g>
<g>
</g>
<g>
</g>
<g>
</g>
<g>
</g>
<g>
</g>
</svg>
