<svg id="Layer_1" data-name="Layer 1" xmlns="http://www.w3.org/2000/svg" viewBox="0 0 53.41 75.93"><defs><style>.cls-1{fill:#939598;}</style></defs><title>light-side</title><path class="cls-1" d="M1484.12,1034.66v56.88a1.23,1.23,0,0,0,1.23,1.23h0.17a34.72,34.72,0,0,0,8.08-2.46,37.94,37.94,0,0,0,15-11.39,8.3,8.3,0,0,0,1.72-5.07c0-.56,0-1.24,0-2l2.94-3.91h2l1,3.81a1.23,1.23,0,0,0,1.15.93v20.7l-10.51,8.41h0l-6.8,5.44a1.23,1.23,0,1,0,1.54,1.92l6.58-5.27,9.26-2.42a1.23,1.23,0,0,0,2.33,0l9.26,2.42,6.58,5.27a1.23,1.23,0,0,0,1.54-1.92l-6.8-5.44h0l-10.51-8.41v-10h1.1v1.14a1.23,1.23,0,0,0,2.46,0v-4.74a1.23,1.23,0,0,0-2.46,0v1.14h-1.1v-8.21a1.23,1.23,0,0,0,1.15-.93l1-3.81h1.37a1.23,1.23,0,0,0,2.46,0v-9.48a1.23,1.23,0,0,0-2.46,0h-10l-2.94-3.91c0-.8,0-1.47,0-2a8.31,8.31,0,0,0-1.72-5.07,37.94,37.94,0,0,0-15-11.39,34.73,34.73,0,0,0-8.08-2.46A1.23,1.23,0,0,0,1484.12,1034.66Zm29.71,26.12h9.39v4.65h-9.39v-4.65Zm10.41,39.28-4.48-1.17v-2.42Zm-6.94-3.58v2.42l-4.48,1.17Zm0.44-28.58h1.59l-0.57,2.28h-0.45Zm-6.36-1.64-1.09,1.45c0-1.34,0-2.87,0-4.6s0-3.25,0-4.6l1.09,1.45v6.29Zm-24.8-30.08a36.59,36.59,0,0,1,20,12.64,5.83,5.83,0,0,1,1.2,3.57c0,2,0,5.43,0,10.73h0c0,5.3,0,8.73,0,10.73a5.83,5.83,0,0,1-1.2,3.57,36.59,36.59,0,0,1-20,12.64v-53.88Z" transform="translate(-1484.12 -1033.43)"/></svg>