<svg id="Layer_1" data-name="Layer 1" xmlns="http://www.w3.org/2000/svg" viewBox="0 0 485.5 485.39"><defs><style>.cls-1{fill:#74c2c5;}.cls-2{fill:#fff;}</style></defs><title>special_offer</title><path class="cls-1" d="M142.15,371.8v45.32c.72.42,1.43.85,2.16,1.26V372.23Z"/><path class="cls-1" d="M101,363.64l-2.16-.43v20.32c.71.72,1.44,1.43,2.16,2.15Z"/><path class="cls-1" d="M144.31,113.16V67c-.73.41-1.44.84-2.16,1.26v45.31Z"/><path class="cls-1" d="M187.57,104.58V49l-2,.56-.2.06V105Z"/><path class="cls-1" d="M485.29,252.86l-12.55-2.51q.09-2.82.12-5.67l12.64-2-12.64-2q0-2.85-.12-5.68l12.55-2.51-12.7-1.45q-.14-2.84-.35-5.67l12.42-3-12.76-.91q-.26-2.83-.59-5.65l12.29-3.55-12.78-.38q-.38-2.82-.83-5.62l12.11-4.06-12.76.15q-.5-2.8-1.06-5.58l11.92-4.56-12.76.69c-.41-1.85-.84-3.7-1.3-5.53l11.73-5.06-12.72,1.22c-.48-1.83-1-3.66-1.53-5.47l11.51-5.54-12.64,1.75q-.85-2.72-1.76-5.41l11.26-6-12.58,2.28c-.63-1.78-1.3-3.56-2-5.32l11-6.49L456,156.14q-1.07-2.63-2.21-5.22l10.76-7-12.36,3.33c-.79-1.72-1.59-3.43-2.43-5.12l10.46-7.4L448,138.61q-1.29-2.53-2.64-5l10.15-7.84-12.07,4.37q-1.39-2.47-2.84-4.89l9.83-8.28-11.9,4.88c-1-1.6-2-3.19-3-4.77l9.49-8.69-11.69,5.37c-1.06-1.56-2.14-3.1-3.23-4.64l9.12-9.09-11.47,5.87q-1.67-2.27-3.42-4.49L433,91.91l-11.23,6.35c-1.18-1.46-2.38-2.91-3.6-4.34l8.35-9.84-11,6.82q-1.86-2.12-3.76-4.19l7.93-10.19L409,83.79c-1.29-1.36-2.61-2.7-3.94-4l7.49-10.5L402.24,77c-1.35-1.31-2.72-2.59-4.11-3.86l7-10.81-10,8.14q-2.11-1.87-4.27-3.69l6.59-11.09-9.66,8.54q-2.19-1.78-4.41-3.51l6.11-11.35-9.28,8.92q-2.26-1.69-4.57-3.32l5.62-11.58-8.89,9.3q-2.34-1.6-4.7-3.13l5.13-11.8-8.49,9.66q-2.4-1.5-4.83-2.93l4.62-12-8.06,10q-2.46-1.4-5-2.74l4.11-12.15-7.62,10.29c-1.68-.86-3.38-1.71-5.07-2.53L346.11,23l-7.18,10.61q-2.57-1.19-5.18-2.31l3.07-12.43L330.09,29.8c-1.74-.72-3.51-1.42-5.27-2.09l2.55-12.53-6.26,11.14c-1.78-.65-3.56-1.27-5.36-1.88l2-12.61L312,23.22q-2.71-.86-5.44-1.65L308,8.89l-5.3,11.62q-2.74-.74-5.51-1.42l1-12.74-4.81,11.83c-1.84-.42-3.7-.81-5.55-1.18l.42-12.76-4.31,12c-1.86-.34-3.72-.65-5.6-.94l-.11-12.77-3.8,12.2c-1.87-.26-3.75-.49-5.63-.71l-.65-12.77-3.29,12.36q-2.81-.27-5.66-.47L258,.43l-2.77,12.48q-2.83-.15-5.67-.23L247.83,0l-2.25,12.6c-.95,0-1.89,0-2.83,0s-1.89,0-2.84,0L237.66,0l-1.72,12.68q-2.84.08-5.67.23L227.5.43l-1.18,12.74q-2.84.2-5.66.47L217.37,1.28,216.72,14c-1.88.21-3.76.45-5.63.71l-3.8-12.2-.11,12.77q-2.82.44-5.61.94l-4.3-12L197.68,17q-2.79.56-5.56,1.18L187.32,6.36l1,12.74q-2.77.68-5.5,1.41l-5.3-11.62L179,21.57c-1.82.53-3.64,1.07-5.44,1.65l-5.78-11.39,2,12.61q-2.69.9-5.36,1.88l-6.25-11.14,2.54,12.53c-1.76.68-3.52,1.37-5.27,2.09l-6.73-10.89,3.08,12.43c-1.75.75-3.47,1.52-5.19,2.31L139.39,23,143,35.34q-2.56,1.23-5.07,2.53l-7.62-10.3,4.11,12.15q-2.49,1.34-5,2.74l-8.06-10,4.63,12q-2.44,1.44-4.83,2.93l-8.49-9.66,5.13,11.8c-1.58,1-3.15,2.07-4.7,3.13l-8.89-9.3,5.61,11.58q-2.3,1.63-4.56,3.33L96,49.34l6.11,11.35q-2.23,1.73-4.42,3.5L88,55.66,94.6,66.75q-2.16,1.82-4.27,3.69l-10-8.14,7,10.81Q85.28,75,83.25,77L72.9,69.26l7.49,10.5q-2,2-3.95,4L65.79,76.52l7.94,10.19c-1.28,1.38-2.54,2.77-3.78,4.19L59,84.08l8.34,9.84q-1.82,2.15-3.59,4.34L52.51,91.91l8.74,9.47q-1.73,2.22-3.42,4.49L46.36,100l9.12,9.09c-1.09,1.53-2.18,3.08-3.23,4.63l-11.68-5.37L50,117.06q-1.53,2.36-3,4.77l-11.89-4.88,9.83,8.28q-1.45,2.43-2.83,4.9L30,125.75l10.15,7.84c-.9,1.66-1.77,3.33-2.63,5l-12.22-3.85,10.46,7.4q-1.25,2.54-2.42,5.12L21,144l10.75,7c-.76,1.73-1.48,3.47-2.2,5.23L17,153.33l11,6.49c-.68,1.76-1.34,3.53-2,5.32L13.5,162.86l11.26,6q-.92,2.69-1.76,5.41l-12.64-1.75,11.5,5.54c-.53,1.81-1,3.64-1.53,5.47L7.62,182.33l11.73,5.06q-.68,2.75-1.3,5.53L5.3,192.22l11.93,4.56q-.57,2.78-1.07,5.58L3.4,202.21l12.12,4.06q-.45,2.8-.82,5.62l-12.77.38,12.28,3.55c-.22,1.88-.42,3.76-.59,5.65l-12.76.91,12.42,3c-.14,1.88-.26,3.77-.35,5.67L.22,232.53,12.76,235c-.06,1.89-.09,3.78-.1,5.68L0,242.69l12.65,2c0,1.9,0,3.79.1,5.67L.22,252.86l12.7,1.45c.1,1.9.21,3.78.35,5.67L.85,263l12.76.92c.17,1.89.37,3.77.59,5.64L1.92,273.12l12.77.38q.37,2.82.82,5.62L3.4,283.18,16.16,283q.5,2.8,1.07,5.58L5.3,293.17l12.76-.69q.61,2.78,1.3,5.53L7.62,303.06l12.71-1.22c.49,1.83,1,3.66,1.53,5.47l-11.5,5.54L23,311.11q.85,2.72,1.77,5.41l-11.26,6,12.58-2.28c.63,1.78,1.3,3.55,2,5.32l-11,6.5,12.49-2.82c.71,1.76,1.44,3.5,2.2,5.22l-10.75,7,12.36-3.33c.79,1.72,1.59,3.43,2.42,5.13l-10.46,7.4,12.22-3.85q1.28,2.53,2.63,5L30,359.64l12.08-4.37c.93,1.65,1.87,3.28,2.84,4.9l-9.83,8.28L47,363.57q1.5,2.41,3,4.77L40.56,377l11.68-5.37c1.05,1.56,2.14,3.11,3.23,4.63l-9.12,9.09,11.47-5.87c1.12,1.51,2.26,3,3.42,4.49l-8.74,9.47,11.22-6.35q1.78,2.19,3.6,4.34L59,401.31l11-6.81q1.86,2.12,3.78,4.18l-7.93,10.19,10.66-7.26q1.94,2,3.95,4l-7.49,10.5,10.34-7.71q2,2,4.11,3.86l-7,10.81,10-8.14q2.11,1.87,4.27,3.69L88,429.74l9.66-8.54q2.19,1.78,4.42,3.51L96,436l9.28-8.92q2.26,1.69,4.56,3.33L104.21,442l8.89-9.3q2.33,1.59,4.7,3.13l-5.13,11.79,8.49-9.66c1.59,1,3.21,2,4.83,2.94l-4.63,12,8.06-10q2.46,1.4,5,2.74l-4.11,12.15,7.62-10.29q2.51,1.29,5.07,2.53l-3.59,12.29,7.18-10.61c1.72.79,3.44,1.56,5.18,2.32l-3.07,12.43,6.72-10.89c1.75.71,3.51,1.41,5.27,2.09l-2.54,12.53,6.25-11.14q2.67,1,5.36,1.88l-2,12.61,5.78-11.39q2.7.86,5.44,1.65l-1.49,12.68,5.3-11.62c1.82.49,3.66,1,5.5,1.41l-1,12.74,4.81-11.83q2.77.62,5.56,1.19l-.42,12.76,4.3-12q2.79.5,5.61.94l.11,12.77,3.8-12.2q2.81.39,5.63.71l.65,12.77,3.29-12.36q2.82.27,5.66.47L227.5,485l2.77-12.49q2.83.15,5.67.23l1.72,12.68,2.25-12.6c.95,0,1.88,0,2.84,0s1.89,0,2.83,0l2.25,12.6,1.72-12.68q2.84-.08,5.67-.23L258,485l1.18-12.73q2.84-.2,5.66-.47l3.29,12.36.65-12.77q2.83-.32,5.63-.71l3.8,12.2.11-12.77c1.88-.29,3.74-.61,5.61-.94l4.3,12-.42-12.76c1.86-.37,3.72-.77,5.55-1.19L298.18,479l-1-12.74q2.76-.67,5.51-1.41L308,476.5l-1.49-12.68q2.73-.79,5.44-1.65l5.78,11.39-2-12.61q2.7-.91,5.36-1.88l6.26,11.14-2.55-12.53c1.76-.68,3.53-1.38,5.27-2.09l6.73,10.89-3.07-12.43q2.61-1.13,5.18-2.32l7.18,10.61-3.59-12.29c1.7-.82,3.39-1.66,5.07-2.53l7.62,10.29-4.11-12.15q2.5-1.34,5-2.74l8.06,10-4.62-12q2.44-1.44,4.83-2.94l8.49,9.66-5.13-11.79q2.37-1.53,4.7-3.13l8.89,9.3-5.62-11.57q2.31-1.64,4.57-3.33l9.28,8.92-6.11-11.35q2.23-1.73,4.41-3.51l9.66,8.54-6.58-11.1c1.43-1.21,2.86-2.44,4.26-3.68l10,8.14-7-10.81q2.08-1.91,4.11-3.86l10.35,7.71-7.49-10.5c1.33-1.32,2.65-2.67,3.94-4l10.67,7.27-7.93-10.19q1.91-2.07,3.77-4.18l11,6.81-8.34-9.84c1.21-1.43,2.42-2.88,3.59-4.34L433,393.48,424.25,384c1.16-1.48,2.3-3,3.41-4.49l11.47,5.87L430,376.29c1.09-1.53,2.17-3.08,3.23-4.63L444.94,377l-9.49-8.69c1-1.57,2-3.16,3-4.77l11.9,4.88-9.83-8.28q1.45-2.43,2.84-4.9l12.08,4.37-10.15-7.85q1.35-2.49,2.64-5l12.22,3.85-10.46-7.4c.84-1.7,1.64-3.4,2.43-5.13l12.36,3.33-10.75-7q1.13-2.59,2.21-5.22l12.49,2.82-11-6.5c.68-1.76,1.35-3.53,2-5.32L472,322.53l-11.26-6q.92-2.69,1.76-5.41l12.64,1.75-11.51-5.54q.8-2.73,1.54-5.47l12.71,1.22L466.14,298c.46-1.83.89-3.67,1.3-5.53l12.76.69-11.92-4.55q.56-2.78,1.06-5.59l12.76.15L470,279.12q.45-2.8.83-5.62l12.78-.38-12.29-3.55q.33-2.81.59-5.64l12.76-.92-12.42-3q.22-2.83.35-5.67ZM242.75,467.58c-124,0-224.89-100.89-224.89-224.89S118.75,17.81,242.75,17.81,467.64,118.69,467.64,242.69,366.75,467.58,242.75,467.58Z"/><path class="cls-1" d="M98.88,122.18l2.16-.43V99.66c-.73.73-1.44,1.47-2.16,2.21Z"/><path class="cls-1" d="M107.53,120.46l2.17-.43V91.59c-.73.64-1.45,1.29-2.17,1.94Z"/><path class="cls-1" d="M83.74,360.2l-2.16-.42v3.55c.71.94,1.4,1.9,2.11,2.83l0,.06Z"/><path class="cls-1" d="M133.5,115.31l2.17-.43V72.2c-.73.46-1.45.91-2.17,1.37Z"/><path class="cls-1" d="M375.8,120l2.17.43V93.52c-.71-.65-1.45-1.27-2.17-1.91Z"/><path class="cls-1" d="M280.61,101.14l2.16.43V45.36c-.72-.14-1.43-.31-2.16-.45Z"/><path class="cls-1" d="M256.81,96.42V41.84l-2.16-.15V96Z"/><path class="cls-1" d="M291.42,103.29v-56c-.72-.18-1.44-.37-2.16-.54v56.09Z"/><path class="cls-1" d="M228.69,96.42l2.16-.43V41.69l-2.16.15Z"/><path class="cls-1" d="M274.11,99.85V43.79L272,43.47v56Z"/><path class="cls-1" d="M211.38,99.86l2.16-.43v-56l-2.16.32Z"/><path class="cls-1" d="M349.84,114.88l2.16.43V73.57l-2.16-1.37Z"/><path class="cls-1" d="M369.31,118.74V86.13c-.72-.59-1.43-1.19-2.16-1.76v34Z"/><path class="cls-1" d="M306.57,106.29l2.16.43V52.43l-2.16-.72Z"/><path class="cls-1" d="M341.19,113.16l2.17.43V68.28c-.73-.41-1.44-.85-2.17-1.26Z"/><path class="cls-1" d="M242.75,24.1c-120.53,0-218.6,98.06-218.6,218.59s98.06,218.59,218.6,218.59,218.59-98.06,218.59-218.59S363.28,24.1,242.75,24.1ZM109.7,393.84c-.73-.64-1.45-1.3-2.17-2v0c.73.66,1.44,1.34,2.17,2Zm294.23-30.45v-3.61l-2.16.42v6q-3.14,4-6.49,7.93V361.49l-2.17.43v14.69q-3.16,3.54-6.49,6.94V363.21l-2.16.43v22.11c-2.11,2.09-4.29,4.13-6.49,6.13V364.93l-2.17.43v28.48c-2.12,1.87-4.29,3.67-6.49,5.45V366.64l-2.16.43v34q-3.19,2.51-6.49,4.89V368.36l-2.16.43v38.68c-2.13,1.5-4.3,3-6.49,4.37V370.08l-2.16.43v42.73c-2.13,1.34-4.3,2.64-6.49,3.91V371.8l-2.17.43v46.17c-2.14,1.2-4.31,2.35-6.49,3.47V373.51l-2.17.43v49c-2.14,1.07-4.3,2.12-6.49,3.11V375.23l-2.16.43V427q-3.22,1.42-6.49,2.72v-52.8l-2.16.43v53.23c-2.14.83-4.31,1.6-6.49,2.36v-54.3l-2.16.43v54.62q-3.23,1.07-6.49,2V380.38l-2.17.43v55.57c-2.15.62-4.31,1.21-6.49,1.75v-56l-2.16.43v56.11q-3.23.76-6.49,1.42V383.82l-2.16.43V440.5c-2.16.41-4.32.79-6.5,1.13v-56.1L272,386v56c-2.15.31-4.31.61-6.49.86V387.26l-2.16.43V443c-2.16.22-4.32.42-6.49.57V389l-2.16.43v54.29c-2.16.13-4.32.23-6.49.29V390.69l-2.17.43V444c-1.08,0-2.16.05-3.24.05s-2.16,0-3.25-.05v-52.9l-2.16-.43V444c-2.17-.06-4.33-.16-6.49-.29V389.4l-2.16-.43v54.59c-2.18-.15-4.33-.35-6.49-.57V387.68l-2.16-.43v55.52c-2.18-.25-4.34-.55-6.49-.85V386l-2.16-.43v56.1c-2.18-.34-4.34-.74-6.48-1.15v0l-.83-.17.83.15V384.25l-2.17-.43v56.23l.49.1-.49-.1h0c-2.17-.44-4.34-.91-6.48-1.41V382.53l-2.17-.43v56c-2.18-.54-4.34-1.13-6.49-1.75V380.81l-2.16-.43v55.38q-3.27-1-6.49-2V379.1l-2.16-.43V433q-3.26-1.13-6.49-2.37V377.38l-2.16-.43v52.8q-3.28-1.3-6.49-2.72V375.66l-2.17-.43v50.85c-2.18-1-4.35-2-6.49-3.11v-49l-2.17-.43v48.35q-3.28-1.69-6.48-3.49v0c-.73-.41-1.44-.83-2.16-1.24v0q-3.29-1.89-6.49-3.92V370.51l-2.17-.43v41.76c.71.47,1.44.91,2.17,1.36v0c-.72-.45-1.45-.9-2.17-1.36v0q-3.29-2.12-6.49-4.37V368.79l-2.16-.43v37.57c-2.2-1.59-4.36-3.23-6.48-4.91V367.08l-2.17-.43V399.3q-3.3-2.68-6.49-5.48V365.36l-2.17-.43v26.9q-3.31-3-6.48-6.15v.07c-.73-.72-1.45-1.46-2.16-2.2v0q-3.32-3.38-6.49-6.91v-14.7l-2.16-.43v12.66c-2.23-2.59-4.39-5.24-6.49-7.94h0l0-.06c-.71-.91-1.42-1.83-2.11-2.75v-.07c-1-1.39-2.11-2.76-3.12-4.17H407C406,360.59,405,362,403.93,363.39Zm0-237.77V122c1.05,1.39,2.1,2.8,3.11,4.23H78.45c1-1.43,2.07-2.83,3.12-4.23v0c.09-.13.19-.25.29-.38l-.29.4v3.61l2.16-.43v-6l-.1.13.1-.13h0q3.14-4,6.49-7.91v0l.44-.51-.44.52V123.9l2.16-.43V108.79c-.15.17-.31.33-.45.51l.45-.52v0q3.17-3.54,6.49-6.93v0c.71-.73,1.43-1.47,2.16-2.19h0c2.11-2.09,4.29-4.12,6.48-6.12v0c.72-.65,1.44-1.31,2.17-2v0c2.13-1.87,4.28-3.72,6.49-5.5v32.65l2.17-.43V84.38c2.13-1.68,4.28-3.33,6.48-4.92V117l2.16-.43V78q3.21-2.25,6.49-4.38v-.05c.71-.46,1.44-.9,2.17-1.36v0q3.21-2,6.49-3.91v0c.72-.41,1.43-.83,2.16-1.24v0q3.21-1.8,6.48-3.48v48.33l2.17-.43v-49c2.13-1.07,4.3-2.09,6.49-3.08v0l1.21-.53-1.21.56v50.82l2.17-.43V58.37l-.25.11.25-.11h0c2.13-.94,4.3-1.84,6.49-2.71v0l1-.41-1,.43v52.78l2.16-.43V54.79l-1.13.43,1.13-.45v0c2.15-.83,4.32-1.63,6.49-2.38v54.31l2.16-.43V51.68q3.22-1.07,6.49-2h0l.2-.06,2-.59v0c2.16-.61,4.32-1.19,6.49-1.73v0l2.17-.51h0l-2.17.51v56l2.17-.43V46.76c2.15-.51,4.31-1,6.48-1.43h0l2.17-.44v0l-2.17.42v56.24l2.17-.43V44.91c2.15-.41,4.31-.79,6.48-1.13v0l2.16-.31v0c2.15-.31,4.32-.6,6.49-.85V98.14l2.16-.43V42.4q3.24-.33,6.49-.56v0l2.16-.15h0c2.15-.13,4.33-.19,6.49-.25v0l1.41,0-1.41.05V94.7l2.16-.43V41.38c1.08,0,2.16-.05,3.25-.05s2.16,0,3.24.05v52.9l2.17.43V41.44c-.47,0-.93,0-1.4,0l1.4,0v0c2.17.06,4.34.12,6.49.25h0l2.16.15v0q3.26.23,6.49.56V97.71l2.16.43V42.62c2.18.25,4.33.54,6.49.86v0l2.16.31v0c2.17.34,4.35.7,6.5,1.11h0l2.16.44v0c2.17.44,4.35.9,6.49,1.41v0l2.16.51v0c2.18.54,4.34,1.11,6.49,1.73v0c.72.2,1.44.43,2.17.65v0L297.92,49v55.54l2.17.43V49.66q3.27,1,6.49,2v0c.72.24,1.45.47,2.16.72v0c2.18.76,4.34,1.56,6.49,2.39v0c.55.21,1.1.44,1.65.66-.55-.22-1.11-.41-1.65-.62V108l2.16.43V55.64l-.24-.1.24.1h0c2.18.87,4.35,1.77,6.49,2.72v51.37l2.16.43V59.31c2.18,1,4.34,2,6.49,3.11v49l2.17.43V63.54c2.18,1.13,4.35,2.28,6.49,3.48v0l2.17,1.24v0q3.29,1.9,6.49,3.92v0c.72.45,1.45.9,2.16,1.36v.05q3.3,2.13,6.49,4.38V116.6l2.16.43V79.46q3.3,2.39,6.49,4.91h0c.73.57,1.44,1.16,2.16,1.74v0q3.3,2.67,6.49,5.48v-.06c.73.64,1.44,1.3,2.17,2h0c2.2,2,4.37,4,6.49,6.13v22.11l2.16.43V101.84q3.33,3.39,6.49,6.94v14.7l2.17.43V111.24q3.35,3.88,6.49,7.93v6Z"/><path class="cls-2" d="M146.65,168.8a14.75,14.75,0,0,0,6.66-6.88,12.55,12.55,0,0,0,1.3-6.6,5.56,5.56,0,0,0-3.22-4.79,8.52,8.52,0,0,0-3.83-1,11.73,11.73,0,0,0-4.23.68,11.42,11.42,0,0,0-3.89,2.37,12.14,12.14,0,0,0-2.93,4.23,17,17,0,0,0-.73,9.87q1.07,5.36,6.15,11.79a26.81,26.81,0,0,1,4.85,8.91,23.3,23.3,0,0,1,1,8.86,21.82,21.82,0,0,1-2.48,8.29,28.61,28.61,0,0,1-5.47,7.22,22.27,22.27,0,0,1-7.16,5,29.56,29.56,0,0,1-8.52,2.31,31,31,0,0,1-8.74-.22,23.14,23.14,0,0,1-7.84-2.76,27.65,27.65,0,0,1-6.82-5.53,22.31,22.31,0,0,1-4-6.49A20.89,20.89,0,0,1,95.21,197a26.19,26.19,0,0,1,.79-7.22,23.88,23.88,0,0,1,4.74-9.65,14.28,14.28,0,0,1,6.88-4.91,11.17,11.17,0,0,1,5.58-.17,7.27,7.27,0,0,1,4.57,2.76,21.62,21.62,0,0,0-6.32,5.41,31,31,0,0,0-4.63,8.46,25.7,25.7,0,0,0-1.47,6.2,19.33,19.33,0,0,0,.28,6.09,15.57,15.57,0,0,0,2.26,5.41,13.58,13.58,0,0,0,4.46,4.17,14,14,0,0,0,5.7,2.14,16.88,16.88,0,0,0,6.15-.22,18.24,18.24,0,0,0,5.75-2.37,16.08,16.08,0,0,0,4.63-4.4,15.47,15.47,0,0,0,2.59-5.92,15.7,15.7,0,0,0,0-5.92A20.6,20.6,0,0,0,135,191a51,51,0,0,0-3.72-5.87q-5.87-7.89-6.6-15.12a23.62,23.62,0,0,1,2.54-13.54,18.1,18.1,0,0,1,4.74-5.87,21.48,21.48,0,0,1,13.93-4.79,24.16,24.16,0,0,1,7.73,1.41A17.18,17.18,0,0,1,160,151.2,12.68,12.68,0,0,1,163.51,162a15.52,15.52,0,0,1-1.75,5.36,11,11,0,0,1-3.89,4.34,9.62,9.62,0,0,1-4.51,1.52,7,7,0,0,1-4.06-1A6.18,6.18,0,0,1,146.65,168.8Z"/><path class="cls-2" d="M165.6,175.23a21.11,21.11,0,0,0,6.2-.28,57.33,57.33,0,0,0,6.32-1.41L177,176.36,172.25,182l.34.45,2.71-2.82a16.78,16.78,0,0,1,2.76-2.59,19.86,19.86,0,0,1,3.55-2.14,16.75,16.75,0,0,1,3.95-1.3,11.32,11.32,0,0,1,4.06-.06,9.44,9.44,0,0,1,5.64,2.43,10.06,10.06,0,0,1,2.93,5.75,21.64,21.64,0,0,1-.51,8.74,40.25,40.25,0,0,1-4.91,11.28q-1.13,1.81-2.26,3.38t-2.37,3a14.35,14.35,0,0,0,9-2.37,21.6,21.6,0,0,0,7.67-8.46l2.71,1.58Q203,206.37,197,209.35a21,21,0,0,1-12.18,2.2A28.19,28.19,0,0,1,171,218.49a19.75,19.75,0,0,1-13.42-2.09l-9.25,18.73a37.52,37.52,0,0,0-6.15.06,41.26,41.26,0,0,0-6.26,1Zm20.19,3.27q-3.72-.9-8.69,3.84t-10,15l-8.12,16.47a8.78,8.78,0,0,0,4.68.62,15.17,15.17,0,0,0,5.87-2,31.26,31.26,0,0,0,6.43-5,41.84,41.84,0,0,0,6.37-8.35q5.3-9,5.87-14.5T185.79,178.5Z"/><path class="cls-2" d="M221.89,215.16a26.9,26.9,0,0,0,6.77-1,34.09,34.09,0,0,0,7.73-3.16,37.38,37.38,0,0,0,7.5-5.53,34.47,34.47,0,0,0,6.32-8.12l2.71,1.58a38.25,38.25,0,0,1-6.09,7.9,41.45,41.45,0,0,1-17,10.32,32.62,32.62,0,0,1-9.81,1.52,19.86,19.86,0,0,1-9.87-2.2,12.9,12.9,0,0,1-5.58-5.87,15.69,15.69,0,0,1-1.13-8.52,28.7,28.7,0,0,1,3.5-10.26,37.48,37.48,0,0,1,6.82-9,35.45,35.45,0,0,1,8.12-5.92,30.4,30.4,0,0,1,8.46-3,26.21,26.21,0,0,1,8-.34,10,10,0,0,1,5.13,1.86,9,9,0,0,1,2.88,3.67,10,10,0,0,1,.68,4.79,14.77,14.77,0,0,1-1.58,5.36,25.82,25.82,0,0,1-5.19,7.16,30.69,30.69,0,0,1-7.39,5.36,37.13,37.13,0,0,1-18.56,4.06q-.45,4.4,1.58,6.88T221.89,215.16Zm-3.38-21.43a35.28,35.28,0,0,0-3.84,9.59,21.8,21.8,0,0,0,11.11-4.63,36.39,36.39,0,0,0,9.42-11.17q2.71-4.62,2.59-7.5t-1.69-3.21q-2.48-.79-7.33,3.27T218.5,193.73Z"/><path class="cls-2" d="M267.57,215.16a25.34,25.34,0,0,0,6.71-1,30.81,30.81,0,0,0,7.33-3.16,35,35,0,0,0,7.05-5.53,38.24,38.24,0,0,0,6.09-8.12l2.71,1.58a43.82,43.82,0,0,1-6,8,40.29,40.29,0,0,1-7.5,6.2,36.26,36.26,0,0,1-8.74,4.06,31.71,31.71,0,0,1-9.53,1.47,20.9,20.9,0,0,1-10-2.14,12.86,12.86,0,0,1-5.7-5.81,15.35,15.35,0,0,1-1.18-8.52,27.6,27.6,0,0,1,3.72-10.38A36.21,36.21,0,0,1,267.4,177a31.8,31.8,0,0,1,8.46-3,24.49,24.49,0,0,1,7.84-.39,11.69,11.69,0,0,1,5.24,1.86,8,8,0,0,1,2.82,3.44,10.37,10.37,0,0,1,.73,4.51,15.52,15.52,0,0,1-1,4.85,19.88,19.88,0,0,1-2.93,5.08,16.2,16.2,0,0,1-4.06,3.67,12,12,0,0,1-5,1.75A11.81,11.81,0,0,1,274,198q1.92-2.82,3.89-5.92t3.21-5.36q2.59-4.85,2.59-7.11t-1.58-2.82a4.88,4.88,0,0,0-3.33.34,16.68,16.68,0,0,0-4.46,2.93,39.22,39.22,0,0,0-5.13,5.53,67.49,67.49,0,0,0-5.36,8.12q-5.3,9.48-4.23,15.45T267.57,215.16Z"/><path class="cls-2" d="M290,209.3a25.63,25.63,0,0,1,2.76-8.18q2.31-4.57,4.91-9.87l7.78-15.57a30.64,30.64,0,0,0,13-2.14L304.34,202q-5.08,10.72-.9,10.72,2.59,0,6.54-3.5t8.8-11.85l2.71,1.58q-2.48,3.72-5,7.28a45.54,45.54,0,0,1-5.47,6.37,25.67,25.67,0,0,1-6.32,4.51,16.67,16.67,0,0,1-7.56,1.69,7.54,7.54,0,0,1-5.41-2.31Q289.34,214.15,290,209.3ZM325,162a8.12,8.12,0,0,1-4.68,4.12,7.51,7.51,0,0,1-5.92-.28,7.27,7.27,0,0,1-3.89-4.4,7.08,7.08,0,0,1,.85-5.75,7.54,7.54,0,0,1,4.68-3.84,8,8,0,0,1,5.92.45,7.39,7.39,0,0,1,3.67,4.34A6.58,6.58,0,0,1,325,162Z"/><path class="cls-2" d="M322.62,190a47.68,47.68,0,0,1,8.06-9.31,32.25,32.25,0,0,1,8.52-5.47,19.46,19.46,0,0,1,8.4-1.64,17.81,17.81,0,0,1,7.73,2.09,12,12,0,0,0,6.37,1.47,18.77,18.77,0,0,0,6.94-1.58L355.22,202q-5.3,10.72-1.35,10.72,2.59,0,6.77-3.5t9-11.85l2.71,1.58q-2.71,3.95-5.41,7.56a44.45,44.45,0,0,1-5.7,6.32,27.43,27.43,0,0,1-6.32,4.34,15.77,15.77,0,0,1-7.05,1.64,7,7,0,0,1-5-2,7.15,7.15,0,0,1-2.09-5.47l1.69-3.84h-.34l-1.24,1.81a26.47,26.47,0,0,1-6.54,6.82,13.61,13.61,0,0,1-8,2.54,9.26,9.26,0,0,1-6.49-2.31,10.33,10.33,0,0,1-3.16-6.26,22.59,22.59,0,0,1,.73-9.14A36.73,36.73,0,0,1,322.62,190Zm7.44,23.35q3.38-.11,8-5.25a66.05,66.05,0,0,0,9.25-14.27l7.56-15.23a8.31,8.31,0,0,0-5-.51,16.15,16.15,0,0,0-5.7,2.37,31.18,31.18,0,0,0-5.86,5,45.55,45.55,0,0,0-5.53,7.28,49.24,49.24,0,0,0-4.34,8.52,23.24,23.24,0,0,0-1.58,6.49,7.48,7.48,0,0,0,.68,4.17A2.75,2.75,0,0,0,330.06,213.36Z"/><path class="cls-2" d="M364.8,209.3a29.15,29.15,0,0,1,2.82-8.18q2.26-4.57,4.85-9.87L391.76,152a25.88,25.88,0,0,0,6.37-.39,34.35,34.35,0,0,0,6.6-1.75L379.13,202a30,30,0,0,0-2.82,7.61q-.45,2.77,1.47,3.1,2.25.57,6.54-3.16t9.25-12.18l2.71,1.58q-2.71,4.06-5.41,7.67a49,49,0,0,1-5.58,6.32,25.43,25.43,0,0,1-6,4.29,15.17,15.17,0,0,1-6.88,1.58,8.84,8.84,0,0,1-3.27-.62,6.65,6.65,0,0,1-4.17-4.74A10.6,10.6,0,0,1,364.8,209.3Z"/><path class="cls-2" d="M184.71,250.94a14.3,14.3,0,0,1,13.54,10.89,28.67,28.67,0,0,1,.51,11.39,55,55,0,0,1-4.23,14.5,78,78,0,0,1-9.19,16.58,58,58,0,0,1-10.72,11.22,36.84,36.84,0,0,1-11.45,6.2,31.59,31.59,0,0,1-11.51,1.52q-6.32-.34-9.93-3.67a15.6,15.6,0,0,1-4.68-8.69,33,33,0,0,1,.22-12.41,62.17,62.17,0,0,1,4.91-14.83A76.19,76.19,0,0,1,150,270.23a55.59,55.59,0,0,1,10-10.66,41.82,41.82,0,0,1,11.79-6.77A30.88,30.88,0,0,1,184.71,250.94Zm-1,3.38a13,13,0,0,0-4.79.56,18.13,18.13,0,0,0-6.6,4,56.53,56.53,0,0,0-8.24,9.42,111.58,111.58,0,0,0-9.59,16.7,121,121,0,0,0-6.2,16.3,41.11,41.11,0,0,0-1.8,10.43q0,4,1.41,5.75a5.41,5.41,0,0,0,3.44,2.14,10.62,10.62,0,0,0,5-.34q3-.79,7.05-4.29a55.73,55.73,0,0,0,8.74-10.43,129.92,129.92,0,0,0,10.15-18.78,88.32,88.32,0,0,0,5.24-13.93,37.29,37.29,0,0,0,1.47-9.65q-.06-3.83-1.47-5.7A5.54,5.54,0,0,0,183.7,254.33Z"/><path class="cls-2" d="M242.13,264.14a3.3,3.3,0,0,1-2,.51,3.53,3.53,0,0,1-2-.73,4,4,0,0,1-1.35-2,6.16,6.16,0,0,1,0-3.33,7.77,7.77,0,0,0-5.53.51,12.08,12.08,0,0,0-5.19,4.91,34.81,34.81,0,0,0-2.48,4.74q-1.13,2.6-2,4.85h8.46l-2.37,4.4h-8.23l-30,61.93a27.44,27.44,0,0,0-6.09.28,49.15,49.15,0,0,0-6.88,1.41L207.72,278h-8.23l2.48-4.4h8a41.44,41.44,0,0,1,6-11.28,21.6,21.6,0,0,1,8.12-6.43,13.71,13.71,0,0,1,3.44-1,23.56,23.56,0,0,1,4-.34,18,18,0,0,1,4,.45,14.76,14.76,0,0,1,3.67,1.35q3.39,1.92,3.89,4.34T242.13,264.14Z"/><path class="cls-2" d="M262.09,264.14a3.3,3.3,0,0,1-2,.51,3.53,3.53,0,0,1-2-.73,4,4,0,0,1-1.35-2,6.16,6.16,0,0,1,0-3.33,7.78,7.78,0,0,0-5.53.51,12.08,12.08,0,0,0-5.19,4.91,34.81,34.81,0,0,0-2.48,4.74q-1.13,2.6-2,4.85H250l-2.37,4.4h-8.23l-30,61.93a27.44,27.44,0,0,0-6.09.28,49.15,49.15,0,0,0-6.88,1.41L227.69,278h-8.23l2.48-4.4h8a41.44,41.44,0,0,1,6-11.28,21.6,21.6,0,0,1,8.12-6.43,13.72,13.72,0,0,1,3.44-1,23.57,23.57,0,0,1,4-.34,18,18,0,0,1,4,.45,14.78,14.78,0,0,1,3.67,1.35q3.39,1.92,3.89,4.34T262.09,264.14Z"/><path class="cls-2" d="M256.79,319.64a26.89,26.89,0,0,0,6.77-1,34.08,34.08,0,0,0,7.73-3.16,37.4,37.4,0,0,0,7.5-5.53,34.47,34.47,0,0,0,6.32-8.12l2.71,1.58a38.25,38.25,0,0,1-6.09,7.9,41.46,41.46,0,0,1-17,10.32,32.63,32.63,0,0,1-9.81,1.52,19.86,19.86,0,0,1-9.87-2.2,12.9,12.9,0,0,1-5.58-5.87,15.69,15.69,0,0,1-1.13-8.52,28.7,28.7,0,0,1,3.5-10.26,37.5,37.5,0,0,1,6.82-9,35.44,35.44,0,0,1,8.12-5.92,30.39,30.39,0,0,1,8.46-3,26.21,26.21,0,0,1,8-.34,10,10,0,0,1,5.13,1.86,9,9,0,0,1,2.88,3.67,10,10,0,0,1,.68,4.79,14.77,14.77,0,0,1-1.58,5.36,25.8,25.8,0,0,1-5.19,7.16,30.67,30.67,0,0,1-7.39,5.36,37.12,37.12,0,0,1-18.56,4.06q-.45,4.4,1.58,6.88T256.79,319.64Zm-3.38-21.43a35.28,35.28,0,0,0-3.84,9.59,21.8,21.8,0,0,0,11.11-4.63A36.38,36.38,0,0,0,270.1,292q2.71-4.62,2.59-7.5T271,281.29q-2.48-.79-7.33,3.27T253.41,298.21Z"/><path class="cls-2" d="M298.19,278.35q16.69-3.27,18.5,6.32a10.72,10.72,0,0,1-.06,3.95,20.39,20.39,0,0,1-1.35,4.23q-1,2.2-2.26,4.51t-2.65,4.79a112.37,112.37,0,0,0-5.07,10.26q-1.58,3.83.22,4.63a2.81,2.81,0,0,0,2,.22,7.52,7.52,0,0,0,2.48-1,22.17,22.17,0,0,0,2.65-1.92,19.3,19.3,0,0,0,2.48-2.48,57.71,57.71,0,0,0,3.72-4.57q1.69-2.31,3.95-5.47l2.71,1.58q-2.48,3.27-5.3,7.16a45.8,45.8,0,0,1-6.77,7.39,20.35,20.35,0,0,1-3.61,2.65,21.11,21.11,0,0,1-4.12,1.86,15,15,0,0,1-4.23.73,9.16,9.16,0,0,1-7.78-4.34,9.57,9.57,0,0,1-.9-5.13,21.91,21.91,0,0,1,1.52-6.2,40.2,40.2,0,0,1,3.33-6.6q1.58-2.71,3.1-5.13t2.71-4.51a24.49,24.49,0,0,0,1.81-3.84,6,6,0,0,0,.39-3A2.81,2.81,0,0,0,303.1,282a12.88,12.88,0,0,0-4.91.17q-.68,2-2.09,5.24T293,294q-1.69,3.39-3.38,6.49a52.46,52.46,0,0,1-3,5L284,304.07q1.8-3.39,3.27-6T290,293q1.24-2.43,2.37-5t2.26-5.7a2.72,2.72,0,0,1-1.58-1.52,6.18,6.18,0,0,1-.45-2.43Z"/><path class="cls-2" d="M337.67,318.85a7.62,7.62,0,0,1-4.4,3.84,7,7,0,0,1-5.53-.22,6.54,6.54,0,0,1-3.67-4.12,7.36,7.36,0,0,1,.85-5.58,7.8,7.8,0,0,1,4.46-3.5,7.24,7.24,0,0,1,5.47.34,6.62,6.62,0,0,1,3.44,4.06A6.85,6.85,0,0,1,337.67,318.85Zm27.75-55.61a90.75,90.75,0,0,0-16.86,17.94,115,115,0,0,0-10.77,18.61A9.27,9.27,0,0,1,336.2,294a32,32,0,0,1,1.24-8.35,59,59,0,0,1,3.5-9.42,63.48,63.48,0,0,1,5.19-9.14,47.07,47.07,0,0,1,6.37-7.56,21.49,21.49,0,0,1,6.94-4.62,7.16,7.16,0,0,1,4.68-.39,5.05,5.05,0,0,1,2.88,2,4.39,4.39,0,0,1,.57,3.27A6,6,0,0,1,365.42,263.24Z"/></svg>