<svg id="Layer_1" data-name="Layer 1" xmlns="http://www.w3.org/2000/svg" viewBox="0 0 159.45 118.28"><defs><style>.cls-1{fill:#939598;}</style></defs><title>tape-measure</title><path class="cls-1" d="M948.21,734.22V680.88a8.24,8.24,0,0,0-.29-2.19,7.5,7.5,0,0,1,1-.19c-4-24.75-23-43.49-45.7-43.49-25.69,0-46.51,23.88-46.51,53.33V727H793.35v-8.6a1.57,1.57,0,1,0-3.12,0v33.12a1.67,1.67,0,0,0,1.17,1.65v0.06h80.1c0.27,0,.53,0,0.8,0H934c8.63,0,15.64-7.7,15.64-17.2v-1.73a6.29,6.29,0,0,1-1.47-.14h0ZM794.53,749.82V730.46H800V740h1v-9.5H803v5.45h1v-5.45h2.38v5.45h1v-5.45h2.53v5.45h1v-5.45h2.38v5.45h1v-5.45h1.89V740h1v-9.5h2.26v5.45h1v-5.45h2.37v5.45h1v-5.45h2.53v5.45h1v-5.45h2.38v5.45h1v-5.45h2.35V740h1v-9.5h1.94v5.45h1v-5.45h2.38v5.45h1v-5.45H843v5.45h1v-5.45h2.38v5.45h1v-5.45h1.88V740h1v-9.5h6.38v5.64a17.78,17.78,0,0,0,6.23,13.72H794.53ZM902,666c10.79,0,19.55,9.62,19.55,21.5S912.79,709,902,709s-19.54-9.64-19.54-21.51S891.21,666,902,666h0Zm-27.74,71.69H872v-7.22h2.22v7.22Zm56.66,0H877.38v-9.75h53.54v9.75Zm-13.52-90.9,2.29-5.47c0.71,0.37,17.57,9.06,22,25.08l-5.22,1.78c-3.75-13.42-19-21.3-19.12-21.39h0Zm28.47,86.56c-4.08-2.28-7.41-8.13-9.09-15.74V695.25c1.66-7.52,4.92-13.31,8.93-15.65a5.06,5.06,0,0,1,.16,1.28v52.45Zm-4.65-37.1c-2.2,0-3.39,5.1-3.39,9.9S939,716,941.22,716s3.39-5.09,3.39-9.89-1.19-9.9-3.39-9.9h0Zm0,18.92c-1.24,0-2.61-3.71-2.61-9s1.37-9,2.61-9,2.6,3.71,2.6,9-1.37,9-2.6,9h0Zm0.38-15.94c0.08,0.08.85,1,1.24,4.24l-0.77.1c-0.36-2.94-1-3.72-1-3.73Zm-47.54-11.73c0-4.83,3.56-8.75,7.95-8.75s7.95,3.92,7.95,8.75-3.56,8.75-7.95,8.75-7.95-3.92-7.95-8.75h0Zm0,0" transform="translate(-790.23 -635.01)"/></svg>